<svg width="630" height="381" viewBox="0 0 630 381" fill="none" xmlns="http://www.w3.org/2000/svg">
<rect width="630" height="381" fill="#F4FCFF"/>
<path d="M225.814 156.468C220.693 156.318 215.542 156.258 210.421 156.228C210.421 151.107 210.391 145.956 210.241 140.835L210.001 132.091C209.852 129.186 209.762 126.251 209.552 123.346H207.097C206.887 126.251 206.797 129.186 206.647 132.091L206.408 140.835C206.348 143.231 206.318 145.657 206.288 148.053C205.33 145.836 204.401 143.62 203.413 141.434L199.849 133.468C198.591 130.833 197.394 128.167 196.106 125.562L193.83 126.52C194.758 129.275 195.776 132.001 196.765 134.756L199.879 142.932C200.748 145.178 201.646 147.424 202.545 149.64C200.838 147.963 199.101 146.286 197.364 144.609L191.015 138.589C188.859 136.643 186.732 134.636 184.516 132.719L182.779 134.456C184.696 136.672 186.702 138.769 188.649 140.955L194.668 147.304C196.315 149.041 197.993 150.778 199.7 152.485C197.453 151.586 195.237 150.688 192.991 149.819L184.816 146.705C182.06 145.717 179.335 144.698 176.58 143.77L175.622 146.046C178.227 147.364 180.893 148.532 183.528 149.789L191.494 153.353C193.68 154.342 195.896 155.27 198.112 156.228C195.717 156.258 193.291 156.288 190.895 156.348L182.15 156.588C179.245 156.737 176.311 156.827 173.406 157.037V159.492C176.311 159.702 179.245 159.792 182.15 159.942L190.895 160.181C196.016 160.331 201.167 160.331 206.288 160.361C206.318 165.482 206.348 170.633 206.528 175.754L206.797 184.499C206.947 187.404 207.037 190.338 207.246 193.243H209.492C209.702 190.338 209.792 187.404 209.942 184.499L210.211 175.754C210.301 173.298 210.331 170.813 210.361 168.357C211.349 170.633 212.307 172.879 213.326 175.125L216.919 183.091C218.177 185.727 219.375 188.392 220.693 190.997L222.759 190.129C221.831 187.344 220.813 184.618 219.854 181.863L216.77 173.688C215.901 171.382 215.003 169.076 214.074 166.8C215.841 168.507 217.608 170.244 219.405 171.921L225.784 177.91C227.94 179.857 230.066 181.863 232.282 183.75L233.87 182.163C231.953 179.947 229.976 177.82 228.03 175.664L222.04 169.285C220.363 167.488 218.626 165.722 216.919 163.955C219.225 164.853 221.501 165.781 223.807 166.65L231.983 169.735C234.738 170.693 237.463 171.741 240.248 172.639L241.117 170.573C238.511 169.255 235.846 168.057 233.211 166.8L225.245 163.206C222.999 162.188 220.723 161.199 218.477 160.241C220.932 160.211 223.418 160.181 225.874 160.091L234.618 159.822C237.523 159.672 240.458 159.582 243.363 159.373V157.127C240.458 156.917 237.523 156.827 234.618 156.677L225.814 156.468Z" fill="#040531"/>
<path d="M208.325 101.125C176.79 101.125 151.125 126.79 151.125 158.325C151.125 189.859 176.79 215.524 208.325 215.524C239.859 215.524 265.524 189.859 265.524 158.325C265.554 126.79 239.889 101.125 208.325 101.125ZM208.325 210.194C179.725 210.194 156.456 186.925 156.456 158.325C156.456 129.725 179.725 106.456 208.325 106.456C236.925 106.456 260.194 129.725 260.194 158.325C260.194 186.925 236.925 210.194 208.325 210.194Z" fill="#040531"/>
<path fill-rule="evenodd" clip-rule="evenodd" d="M352.429 60.3234C343.174 56.2656 332.382 60.4788 328.324 69.734C327.109 72.5047 326.636 75.409 326.816 78.2289C326.868 79.0557 326.241 79.7686 325.414 79.8213C324.587 79.874 323.875 79.2465 323.822 78.4197C323.612 75.1329 324.165 71.7491 325.576 68.5294C330.299 57.7568 342.861 52.8527 353.634 57.5758C364.406 62.2989 369.31 74.8606 364.587 85.6332C359.864 96.4058 347.302 101.31 336.53 96.5867C332.979 95.0301 330.063 92.6189 327.921 89.7C327.43 89.0322 327.574 88.0934 328.242 87.6032C328.91 87.1131 329.849 87.2571 330.339 87.9249C332.178 90.43 334.68 92.4999 337.734 93.8392C346.99 97.897 357.782 93.6837 361.84 84.4286C365.897 75.1734 361.684 64.3812 352.429 60.3234Z" fill="#040531"/>
<path fill-rule="evenodd" clip-rule="evenodd" d="M326.995 94.4093C326.167 94.4416 325.469 93.7968 325.437 92.969L325.222 87.4636C325.165 86.007 326.361 84.8108 327.818 84.8678L333.323 85.0831C334.151 85.1155 334.796 85.8128 334.763 86.6406C334.731 87.4684 334.034 88.1132 333.206 88.0808L328.241 87.8866L328.435 92.8518C328.467 93.6796 327.822 94.3769 326.995 94.4093Z" fill="#040531"/>
<path fill-rule="evenodd" clip-rule="evenodd" d="M345 86C349.971 86 354 81.9706 354 77C354 72.0294 349.971 68 345 68C340.029 68 336 72.0294 336 77C336 81.9706 340.029 86 345 86ZM345 89C351.627 89 357 83.6274 357 77C357 70.3726 351.627 65 345 65C338.373 65 333 70.3726 333 77C333 83.6274 338.373 89 345 89Z" fill="#040531"/>
<rect x="349" y="73" width="8" height="8" transform="rotate(90 349 73)" fill="url(#paint0_linear_2_39)"/>
<path fill-rule="evenodd" clip-rule="evenodd" d="M485 259V287H513V259H485ZM484 256C482.895 256 482 256.895 482 258V288C482 289.105 482.895 290 484 290H514C515.105 290 516 289.105 516 288V258C516 256.895 515.105 256 514 256H484Z" fill="#040531"/>
<path fill-rule="evenodd" clip-rule="evenodd" d="M501 298L501 294L520.193 294L520.193 275.193L524.193 275.193L524.193 298L501 298Z" fill="url(#paint1_linear_2_39)"/>
<path fill-rule="evenodd" clip-rule="evenodd" d="M301.195 70.9474L279.854 70.9474C279.382 70.9474 279 70.5232 279 70C279 69.4768 279.382 69.0526 279.854 69.0526L301.195 69.0526C301.667 69.0526 302.049 69.4768 302.049 70C302.049 70.5232 301.667 70.9474 301.195 70.9474Z" fill="#040531"/>
<path fill-rule="evenodd" clip-rule="evenodd" d="M297.461 64.2775C297.795 63.9075 298.335 63.9075 298.669 64.2775L302.417 68.4369C303.194 69.3002 303.194 70.6998 302.417 71.5631L298.669 75.7225C298.335 76.0925 297.795 76.0925 297.461 75.7225C297.128 75.3526 297.128 74.7527 297.461 74.3827L301.209 70.2233C301.32 70.1 301.32 69.9 301.209 69.7767L297.461 65.6173C297.128 65.2473 297.128 64.6474 297.461 64.2775Z" fill="#040531"/>
<path fill-rule="evenodd" clip-rule="evenodd" d="M280.133 84.0526L301.475 84.0526C301.946 84.0526 302.328 84.4768 302.328 85C302.328 85.5232 301.946 85.9474 301.475 85.9474L280.133 85.9474C279.662 85.9474 279.28 85.5232 279.28 85C279.28 84.4768 279.662 84.0526 280.133 84.0526Z" fill="#040531"/>
<path fill-rule="evenodd" clip-rule="evenodd" d="M283.867 90.7225C283.534 91.0925 282.993 91.0925 282.66 90.7225L278.912 86.5631C278.134 85.6998 278.134 84.3002 278.912 83.4369L282.66 79.2775C282.993 78.9075 283.534 78.9075 283.867 79.2775C284.2 79.6474 284.2 80.2473 283.867 80.6173L280.119 84.7767C280.008 84.9 280.008 85.1 280.119 85.2233L283.867 89.3827C284.2 89.7527 284.2 90.3526 283.867 90.7225Z" fill="#040531"/>
<rect width="8" height="8" transform="matrix(1 -8.74228e-08 -8.74228e-08 -1 287 81)" fill="url(#paint2_linear_2_39)"/>
<path d="M379.544 67.119C378.725 67.119 378.039 67.413 377.598 68.05V67.294H376.149V74H377.612V70.311C377.612 69.17 378.277 68.512 379.208 68.512C379.565 68.512 380.013 68.596 380.321 68.757L380.671 67.308C380.335 67.175 379.992 67.119 379.544 67.119ZM384.747 67.119C382.773 67.119 381.408 68.547 381.408 70.647C381.408 72.775 382.829 74.175 384.838 74.175C385.853 74.175 386.777 73.93 387.596 73.23L386.868 72.187C386.315 72.628 385.601 72.894 384.929 72.894C383.977 72.894 383.13 72.39 382.934 71.186H387.89C387.904 71.018 387.918 70.829 387.918 70.64C387.911 68.547 386.623 67.119 384.747 67.119ZM384.719 68.421C385.65 68.421 386.259 69.03 386.42 70.073H382.941C383.095 69.093 383.676 68.421 384.719 68.421ZM396.165 67.294H394.702V68.106C394.24 67.511 393.547 67.119 392.595 67.119C390.719 67.119 389.242 68.596 389.242 70.647C389.242 72.698 390.719 74.175 392.595 74.175C393.547 74.175 394.24 73.79 394.702 73.195V74H396.165V67.294ZM392.77 68.498C393.981 68.498 394.793 69.422 394.793 70.647C394.793 71.872 393.981 72.796 392.77 72.796C391.51 72.796 390.747 71.823 390.747 70.647C390.747 69.471 391.51 68.498 392.77 68.498ZM399.931 63.92H398.461V74H399.931V63.92ZM406.064 69.604H402.004V70.934H406.064V69.604ZM412.712 67.294H410.143V65.264H408.673V67.294H407.336V68.624H408.673V71.571C408.673 73.356 409.562 74.175 411.081 74.175C411.921 74.175 412.6 73.874 413.139 73.51L412.558 72.341C412.159 72.593 411.662 72.796 411.207 72.796C410.619 72.796 410.143 72.446 410.143 71.543V68.624H412.712V67.294ZM415.969 67.294H414.499V74H415.969V67.294ZM415.227 63.941C414.646 63.941 414.205 64.396 414.205 64.977C414.205 65.558 414.646 65.999 415.227 65.999C415.808 65.999 416.263 65.558 416.263 64.977C416.263 64.396 415.808 63.941 415.227 63.941ZM426.539 67.119C425.706 67.119 424.67 67.357 424.089 68.316C423.627 67.574 422.794 67.119 421.772 67.119C421.086 67.119 420.253 67.322 419.714 68.113V67.294H418.258V74H419.728V70.283C419.728 69.135 420.519 68.512 421.464 68.512C422.444 68.512 423.025 69.142 423.025 70.269V74H424.495V70.283C424.495 69.135 425.286 68.512 426.231 68.512C427.211 68.512 427.792 69.142 427.792 70.269V74H429.262V69.786C429.262 68.218 428.135 67.119 426.539 67.119ZM434.349 67.119C432.375 67.119 431.01 68.547 431.01 70.647C431.01 72.775 432.431 74.175 434.44 74.175C435.455 74.175 436.379 73.93 437.198 73.23L436.47 72.187C435.917 72.628 435.203 72.894 434.531 72.894C433.579 72.894 432.732 72.39 432.536 71.186H437.492C437.506 71.018 437.52 70.829 437.52 70.64C437.513 68.547 436.225 67.119 434.349 67.119ZM434.321 68.421C435.252 68.421 435.861 69.03 436.022 70.073H432.543C432.697 69.093 433.278 68.421 434.321 68.421ZM450.68 66.248H448.64V67.104C448.128 66.472 447.384 66.04 446.32 66.04C444.184 66.04 442.568 67.792 442.568 70.12C442.568 72.448 444.184 74.2 446.32 74.2C447.384 74.2 448.136 73.768 448.64 73.144V74H450.68V66.248ZM446.704 67.984C447.896 67.984 448.704 68.896 448.704 70.12C448.704 71.344 447.896 72.256 446.704 72.256C445.48 72.256 444.704 71.304 444.704 70.12C444.704 68.936 445.48 67.984 446.704 67.984ZM457.188 66.04C456.308 66.04 455.46 66.336 454.908 67.16V66.248H452.876V74H454.964V69.752C454.964 68.584 455.708 68 456.604 68C457.556 68 458.116 68.616 458.116 69.736V74H460.204V69.064C460.204 67.264 458.948 66.04 457.188 66.04ZM465.601 66.04C463.465 66.04 461.849 67.792 461.849 70.12C461.849 72.448 463.465 74.2 465.601 74.2C466.665 74.2 467.417 73.768 467.921 73.144V74H469.961V62.48H467.881V67.056C467.377 66.448 466.641 66.04 465.601 66.04ZM465.985 67.984C467.177 67.984 467.985 68.896 467.985 70.12C467.985 71.344 467.177 72.256 465.985 72.256C464.761 72.256 463.985 71.304 463.985 70.12C463.985 68.936 464.761 67.984 465.985 67.984ZM478.199 62.472H476.111V74H478.199V69.752C478.199 68.584 478.943 68 479.839 68C480.791 68 481.351 68.616 481.351 69.736V74H483.439V69.064C483.439 67.264 482.183 66.04 480.423 66.04C479.575 66.04 478.751 66.312 478.199 67.08V62.472ZM487.652 66.248H485.564V74H487.652V66.248ZM486.596 62.368C485.844 62.368 485.268 62.96 485.268 63.712C485.268 64.464 485.844 65.04 486.596 65.04C487.348 65.04 487.932 64.464 487.932 63.712C487.932 62.96 487.348 62.368 486.596 62.368ZM496.109 66.784C495.077 66.28 494.109 66.048 492.869 66.048C490.829 66.048 489.597 66.992 489.597 68.584C489.597 69.904 490.485 70.688 492.277 70.936L492.909 71.024C493.805 71.152 494.197 71.36 494.197 71.736C494.197 72.192 493.733 72.464 492.765 72.464C491.597 72.464 490.789 72.144 490.125 71.704L489.301 73.288C490.309 74 491.693 74.2 492.749 74.2C494.997 74.2 496.309 73.168 496.309 71.568C496.309 70.256 495.373 69.504 493.693 69.248L493.005 69.144C492.301 69.04 491.741 68.928 491.741 68.48C491.741 68.056 492.141 67.776 492.933 67.776C493.805 67.784 494.789 68.104 495.405 68.408L496.109 66.784ZM503.516 66.248H500.708V63.944H498.62V66.248H497.124V68.104H498.62V71.104C498.62 73.112 499.604 74.2 501.524 74.2C502.628 74.2 503.412 73.848 504.092 73.384L503.324 71.752C502.9 72.008 502.364 72.256 501.868 72.256C501.22 72.256 500.708 71.904 500.708 70.936V68.104H503.516V66.248ZM508.971 66.04C506.563 66.04 504.787 67.784 504.787 70.12C504.787 72.456 506.563 74.2 508.971 74.2C511.387 74.2 513.171 72.456 513.171 70.12C513.171 67.784 511.387 66.04 508.971 66.04ZM508.971 67.984C510.147 67.984 511.035 68.864 511.035 70.12C511.035 71.376 510.147 72.256 508.971 72.256C507.795 72.256 506.915 71.376 506.915 70.12C506.915 68.864 507.795 67.984 508.971 67.984ZM519.084 66.04C518.132 66.04 517.388 66.368 516.9 67.096V66.248H514.876V74H516.964V69.776C516.964 68.624 517.628 68.032 518.596 68.032C519.02 68.032 519.516 68.128 519.86 68.28L520.172 66.208C519.884 66.104 519.532 66.04 519.084 66.04ZM523.683 66.248H521.595V74H523.683V66.248ZM522.627 62.368C521.875 62.368 521.299 62.96 521.299 63.712C521.299 64.464 521.875 65.04 522.627 65.04C523.379 65.04 523.963 64.464 523.963 63.712C523.963 62.96 523.379 62.368 522.627 62.368ZM529.524 66.04C527.052 66.04 525.396 67.776 525.396 70.12C525.396 72.472 527.052 74.2 529.524 74.2C530.82 74.2 531.908 73.68 532.636 72.744L531.148 71.472C530.708 71.952 530.132 72.256 529.46 72.256C528.38 72.256 527.524 71.416 527.524 70.12C527.524 68.832 528.388 67.984 529.468 67.984C530.148 67.984 530.652 68.256 531.124 68.76L532.628 67.504C531.916 66.568 530.82 66.04 529.524 66.04ZM541.618 66.248H539.578V67.104C539.066 66.472 538.322 66.04 537.258 66.04C535.122 66.04 533.506 67.792 533.506 70.12C533.506 72.448 535.122 74.2 537.258 74.2C538.322 74.2 539.074 73.768 539.578 73.144V74H541.618V66.248ZM537.642 67.984C538.834 67.984 539.642 68.896 539.642 70.12C539.642 71.344 538.834 72.256 537.642 72.256C536.418 72.256 535.642 71.304 535.642 70.12C535.642 68.936 536.418 67.984 537.642 67.984ZM545.902 62.48H543.814V74H545.902V62.48ZM385.988 85.833C385.295 85.385 384.322 85.126 383.272 85.126C381.564 85.126 380.5 85.945 380.5 87.275C380.5 88.353 381.291 89.039 382.775 89.242L383.475 89.333C384.273 89.445 384.637 89.697 384.637 90.075C384.637 90.579 384.112 90.894 383.111 90.894C382.019 90.894 381.382 90.579 380.899 90.208L380.22 91.307C381.2 92.035 382.404 92.168 383.097 92.168C385.029 92.168 386.149 91.265 386.149 89.977C386.149 88.829 385.281 88.206 383.818 87.996L383.125 87.891C382.509 87.8 382.019 87.667 382.019 87.198C382.019 86.722 382.488 86.4 383.286 86.4C384.119 86.4 384.952 86.722 385.358 86.974L385.988 85.833ZM392.447 85.294H389.878V83.264H388.408V85.294H387.071V86.624H388.408V89.571C388.408 91.356 389.297 92.175 390.816 92.175C391.656 92.175 392.335 91.874 392.874 91.51L392.293 90.341C391.894 90.593 391.397 90.796 390.942 90.796C390.354 90.796 389.878 90.446 389.878 89.543V86.624H392.447V85.294ZM397.628 85.119C396.809 85.119 396.123 85.413 395.682 86.05V85.294H394.233V92H395.696V88.311C395.696 87.17 396.361 86.512 397.292 86.512C397.649 86.512 398.097 86.596 398.405 86.757L398.755 85.308C398.419 85.175 398.076 85.119 397.628 85.119ZM402.831 85.119C400.857 85.119 399.492 86.547 399.492 88.647C399.492 90.775 400.913 92.175 402.922 92.175C403.937 92.175 404.861 91.93 405.68 91.23L404.952 90.187C404.399 90.628 403.685 90.894 403.013 90.894C402.061 90.894 401.214 90.39 401.018 89.186H405.974C405.988 89.018 406.002 88.829 406.002 88.64C405.995 86.547 404.707 85.119 402.831 85.119ZM402.803 86.421C403.734 86.421 404.343 87.03 404.504 88.073H401.025C401.179 87.093 401.76 86.421 402.803 86.421ZM414.249 85.294H412.786V86.106C412.324 85.511 411.631 85.119 410.679 85.119C408.803 85.119 407.326 86.596 407.326 88.647C407.326 90.698 408.803 92.175 410.679 92.175C411.631 92.175 412.324 91.79 412.786 91.195V92H414.249V85.294ZM410.854 86.498C412.065 86.498 412.877 87.422 412.877 88.647C412.877 89.872 412.065 90.796 410.854 90.796C409.594 90.796 408.831 89.823 408.831 88.647C408.831 87.471 409.594 86.498 410.854 86.498ZM424.826 85.119C423.993 85.119 422.957 85.357 422.376 86.316C421.914 85.574 421.081 85.119 420.059 85.119C419.373 85.119 418.54 85.322 418.001 86.113V85.294H416.545V92H418.015V88.283C418.015 87.135 418.806 86.512 419.751 86.512C420.731 86.512 421.312 87.142 421.312 88.269V92H422.782V88.283C422.782 87.135 423.573 86.512 424.518 86.512C425.498 86.512 426.079 87.142 426.079 88.269V92H427.549V87.786C427.549 86.218 426.422 85.119 424.826 85.119ZM437.116 85.119C436.164 85.119 435.478 85.504 435.016 86.092V85.294H433.553V94.8H435.016V91.202C435.478 91.79 436.164 92.175 437.116 92.175C438.992 92.175 440.469 90.698 440.469 88.647C440.469 86.596 438.992 85.119 437.116 85.119ZM436.941 86.498C438.201 86.498 438.964 87.471 438.964 88.647C438.964 89.823 438.201 90.796 436.941 90.796C435.73 90.796 434.918 89.872 434.918 88.647C434.918 87.422 435.73 86.498 436.941 86.498ZM445.671 85.119C444.852 85.119 444.166 85.413 443.725 86.05V85.294H442.276V92H443.739V88.311C443.739 87.17 444.404 86.512 445.335 86.512C445.692 86.512 446.14 86.596 446.448 86.757L446.798 85.308C446.462 85.175 446.119 85.119 445.671 85.119ZM451.14 85.119C449.068 85.119 447.535 86.638 447.535 88.647C447.535 90.656 449.068 92.175 451.14 92.175C453.212 92.175 454.752 90.656 454.752 88.647C454.752 86.638 453.212 85.119 451.14 85.119ZM451.14 86.498C452.337 86.498 453.247 87.38 453.247 88.647C453.247 89.914 452.337 90.796 451.14 90.796C449.943 90.796 449.04 89.914 449.04 88.647C449.04 87.38 449.943 86.498 451.14 86.498ZM459.608 85.119C457.473 85.119 456.08 86.638 456.08 88.647C456.08 90.656 457.473 92.175 459.608 92.175C460.609 92.175 461.505 91.811 462.114 91.104L461.211 90.096C460.784 90.495 460.21 90.796 459.566 90.796C458.439 90.796 457.585 89.914 457.585 88.647C457.585 87.38 458.439 86.498 459.566 86.498C460.21 86.498 460.707 86.75 461.176 87.191L462.114 86.19C461.519 85.483 460.609 85.119 459.608 85.119ZM466.474 85.119C464.5 85.119 463.135 86.547 463.135 88.647C463.135 90.775 464.556 92.175 466.565 92.175C467.58 92.175 468.504 91.93 469.323 91.23L468.595 90.187C468.042 90.628 467.328 90.894 466.656 90.894C465.704 90.894 464.857 90.39 464.661 89.186H469.617C469.631 89.018 469.645 88.829 469.645 88.64C469.638 86.547 468.35 85.119 466.474 85.119ZM466.446 86.421C467.377 86.421 467.986 87.03 468.147 88.073H464.668C464.822 87.093 465.403 86.421 466.446 86.421ZM476.646 85.833C475.953 85.385 474.98 85.126 473.93 85.126C472.222 85.126 471.158 85.945 471.158 87.275C471.158 88.353 471.949 89.039 473.433 89.242L474.133 89.333C474.931 89.445 475.295 89.697 475.295 90.075C475.295 90.579 474.77 90.894 473.769 90.894C472.677 90.894 472.04 90.579 471.557 90.208L470.878 91.307C471.858 92.035 473.062 92.168 473.755 92.168C475.687 92.168 476.807 91.265 476.807 89.977C476.807 88.829 475.939 88.206 474.476 87.996L473.783 87.891C473.167 87.8 472.677 87.667 472.677 87.198C472.677 86.722 473.146 86.4 473.944 86.4C474.777 86.4 475.61 86.722 476.016 86.974L476.646 85.833ZM483.728 85.833C483.035 85.385 482.062 85.126 481.012 85.126C479.304 85.126 478.24 85.945 478.24 87.275C478.24 88.353 479.031 89.039 480.515 89.242L481.215 89.333C482.013 89.445 482.377 89.697 482.377 90.075C482.377 90.579 481.852 90.894 480.851 90.894C479.759 90.894 479.122 90.579 478.639 90.208L477.96 91.307C478.94 92.035 480.144 92.168 480.837 92.168C482.769 92.168 483.889 91.265 483.889 89.977C483.889 88.829 483.021 88.206 481.558 87.996L480.865 87.891C480.249 87.8 479.759 87.667 479.759 87.198C479.759 86.722 480.228 86.4 481.026 86.4C481.859 86.4 482.692 86.722 483.098 86.974L483.728 85.833ZM487.086 85.294H485.616V92H487.086V85.294ZM486.344 81.941C485.763 81.941 485.322 82.396 485.322 82.977C485.322 83.558 485.763 83.999 486.344 83.999C486.925 83.999 487.38 83.558 487.38 82.977C487.38 82.396 486.925 81.941 486.344 81.941ZM492.89 85.119C492.204 85.119 491.371 85.322 490.832 86.113V85.294H489.376V92H490.846V88.283C490.846 87.135 491.637 86.512 492.582 86.512C493.562 86.512 494.143 87.142 494.143 88.269V92H495.613V87.786C495.613 86.218 494.486 85.119 492.89 85.119ZM500.463 85.119C498.93 85.119 497.355 86.407 497.355 88.577C497.355 90.747 498.93 92.035 500.463 92.035C501.436 92.035 502.192 91.699 502.696 91.055V91.594C502.696 92.84 501.94 93.596 500.568 93.596C499.749 93.596 498.972 93.33 498.293 92.917L497.761 94.156C498.468 94.66 499.567 94.933 500.568 94.933C502.808 94.933 504.166 93.638 504.166 91.531V85.294H502.696V86.099C502.192 85.462 501.436 85.119 500.463 85.119ZM500.841 86.498C502.024 86.498 502.822 87.401 502.822 88.577C502.822 89.753 502.024 90.656 500.841 90.656C499.602 90.656 498.86 89.704 498.86 88.577C498.86 87.443 499.602 86.498 500.841 86.498ZM516.679 85.294H515.216V86.106C514.754 85.511 514.061 85.119 513.109 85.119C511.233 85.119 509.756 86.596 509.756 88.647C509.756 90.698 511.233 92.175 513.109 92.175C514.061 92.175 514.754 91.79 515.216 91.195V92H516.679V85.294ZM513.284 86.498C514.495 86.498 515.307 87.422 515.307 88.647C515.307 89.872 514.495 90.796 513.284 90.796C512.024 90.796 511.261 89.823 511.261 88.647C511.261 87.471 512.024 86.498 513.284 86.498ZM522.538 85.119C521.586 85.119 520.9 85.504 520.438 86.092V85.294H518.975V94.8H520.438V91.202C520.9 91.79 521.586 92.175 522.538 92.175C524.414 92.175 525.891 90.698 525.891 88.647C525.891 86.596 524.414 85.119 522.538 85.119ZM522.363 86.498C523.623 86.498 524.386 87.471 524.386 88.647C524.386 89.823 523.623 90.796 522.363 90.796C521.152 90.796 520.34 89.872 520.34 88.647C520.34 87.422 521.152 86.498 522.363 86.498ZM531.261 85.119C530.309 85.119 529.623 85.504 529.161 86.092V85.294H527.698V94.8H529.161V91.202C529.623 91.79 530.309 92.175 531.261 92.175C533.137 92.175 534.614 90.698 534.614 88.647C534.614 86.596 533.137 85.119 531.261 85.119ZM531.086 86.498C532.346 86.498 533.109 87.471 533.109 88.647C533.109 89.823 532.346 90.796 531.086 90.796C529.875 90.796 529.063 89.872 529.063 88.647C529.063 87.422 529.875 86.498 531.086 86.498ZM541.614 85.833C540.921 85.385 539.948 85.126 538.898 85.126C537.19 85.126 536.126 85.945 536.126 87.275C536.126 88.353 536.917 89.039 538.401 89.242L539.101 89.333C539.899 89.445 540.263 89.697 540.263 90.075C540.263 90.579 539.738 90.894 538.737 90.894C537.645 90.894 537.008 90.579 536.525 90.208L535.846 91.307C536.826 92.035 538.03 92.168 538.723 92.168C540.655 92.168 541.775 91.265 541.775 89.977C541.775 88.829 540.907 88.206 539.444 87.996L538.751 87.891C538.135 87.8 537.645 87.667 537.645 87.198C537.645 86.722 538.114 86.4 538.912 86.4C539.745 86.4 540.578 86.722 540.984 86.974L541.614 85.833Z" fill="#040531"/>
<path d="M181.325 225.018C178.315 225.018 176.194 227.174 176.194 230.1C176.194 233.026 178.315 235.182 181.325 235.182C183.04 235.182 184.51 234.426 185.343 233.201L184.055 232.256C183.446 233.138 182.487 233.663 181.325 233.663C179.323 233.663 177.853 232.214 177.853 230.1C177.853 227.986 179.323 226.537 181.325 226.537C182.494 226.537 183.467 227.083 184.062 227.951L185.385 227.069C184.615 225.795 183.068 225.018 181.325 225.018ZM190.248 228.119C188.176 228.119 186.643 229.638 186.643 231.647C186.643 233.656 188.176 235.175 190.248 235.175C192.32 235.175 193.86 233.656 193.86 231.647C193.86 229.638 192.32 228.119 190.248 228.119ZM190.248 229.498C191.445 229.498 192.355 230.38 192.355 231.647C192.355 232.914 191.445 233.796 190.248 233.796C189.051 233.796 188.148 232.914 188.148 231.647C188.148 230.38 189.051 229.498 190.248 229.498ZM199.184 228.119C198.498 228.119 197.665 228.322 197.126 229.113V228.294H195.67V235H197.14V231.283C197.14 230.135 197.931 229.512 198.876 229.512C199.856 229.512 200.437 230.142 200.437 231.269V235H201.907V230.786C201.907 229.218 200.78 228.119 199.184 228.119ZM208.438 228.294H206.142V227.16C206.142 226.495 206.45 226.124 207.017 226.124C207.458 226.124 207.927 226.285 208.27 226.481L208.788 225.249C208.291 224.955 207.703 224.745 206.919 224.745C205.351 224.745 204.672 225.816 204.672 227.16V228.294H203.328V229.624H204.672V235H206.142V229.624H208.438V228.294ZM211.51 224.92H210.04V235H211.51V224.92ZM219.945 228.294H218.475V232.025C218.475 233.32 217.754 233.796 216.837 233.796C215.92 233.796 215.199 233.32 215.199 232.025V228.294H213.729V232.158C213.729 234.293 215.262 235.175 216.837 235.175C218.405 235.175 219.945 234.293 219.945 232.158V228.294ZM225.023 228.119C223.049 228.119 221.684 229.547 221.684 231.647C221.684 233.775 223.105 235.175 225.114 235.175C226.129 235.175 227.053 234.93 227.872 234.23L227.144 233.187C226.591 233.628 225.877 233.894 225.205 233.894C224.253 233.894 223.406 233.39 223.21 232.186H228.166C228.18 232.018 228.194 231.829 228.194 231.64C228.187 229.547 226.899 228.119 225.023 228.119ZM224.995 229.421C225.926 229.421 226.535 230.03 226.696 231.073H223.217C223.371 230.093 223.952 229.421 224.995 229.421ZM233.515 228.119C232.829 228.119 231.996 228.322 231.457 229.113V228.294H230.001V235H231.471V231.283C231.471 230.135 232.262 229.512 233.207 229.512C234.187 229.512 234.768 230.142 234.768 231.269V235H236.238V230.786C236.238 229.218 235.111 228.119 233.515 228.119ZM242.966 228.294H240.397V226.264H238.927V228.294H237.59V229.624H238.927V232.571C238.927 234.356 239.816 235.175 241.335 235.175C242.175 235.175 242.854 234.874 243.393 234.51L242.812 233.341C242.413 233.593 241.916 233.796 241.461 233.796C240.873 233.796 240.397 233.446 240.397 232.543V229.624H242.966V228.294Z" fill="#040531"/>
<path fill-rule="evenodd" clip-rule="evenodd" d="M404.5 251.5L404.5 286.594L404.5 286.604L404.5 286.607V286.609C404.5 287.999 403.56 289.017 402.606 289.688C401.61 290.388 400.266 290.958 398.742 291.412C395.672 292.325 391.521 292.868 387 292.868C382.479 292.868 378.328 292.325 375.259 291.412C373.734 290.958 372.39 290.388 371.395 289.688C370.44 289.017 369.5 287.999 369.5 286.609L369.5 286.594L369.5 251.5L372.5 251.5L372.5 286.597C372.507 286.624 372.575 286.851 373.12 287.234C373.744 287.673 374.744 288.129 376.114 288.536C378.836 289.346 382.685 289.868 387 289.868C391.315 289.868 395.165 289.346 397.886 288.536C399.257 288.129 400.256 287.673 400.88 287.234C401.427 286.85 401.494 286.623 401.5 286.597L401.5 286.594L401.5 251.5L404.5 251.5Z" fill="#040531"/>
<path fill-rule="evenodd" clip-rule="evenodd" d="M372.522 251.5C372.572 251.58 372.712 251.753 373.088 252.003C373.713 252.418 374.717 252.851 376.093 253.238C378.822 254.006 382.679 254.5 387 254.5C391.321 254.5 395.178 254.006 397.908 253.238C399.283 252.851 400.287 252.418 400.912 252.003C401.288 251.753 401.428 251.58 401.478 251.5C401.428 251.42 401.288 251.247 400.912 250.997C400.287 250.582 399.283 250.149 397.908 249.762C395.178 248.994 391.321 248.5 387 248.5C382.679 248.5 378.822 248.994 376.093 249.762C374.717 250.149 373.713 250.582 373.088 250.997C372.712 251.247 372.572 251.42 372.522 251.5ZM375.28 246.874C378.342 246.013 382.485 245.5 387 245.5C391.515 245.5 395.659 246.013 398.72 246.874C400.24 247.302 401.579 247.838 402.573 248.499C403.51 249.122 404.5 250.106 404.5 251.5C404.5 252.894 403.51 253.878 402.573 254.501C401.579 255.162 400.24 255.698 398.72 256.126C395.659 256.987 391.515 257.5 387 257.5C382.485 257.5 378.342 256.987 375.28 256.126C373.76 255.698 372.421 255.162 371.427 254.501C370.49 253.878 369.5 252.894 369.5 251.5C369.5 250.106 370.49 249.122 371.427 248.499C372.421 247.838 373.76 247.302 375.28 246.874Z" fill="#040531"/>
<rect x="363" y="263" width="28" height="4" fill="url(#paint3_linear_2_39)" style="mix-blend-mode:multiply"/>
<path d="M345.72 300.294H343.151V298.264H341.681V300.294H340.344V301.624H341.681V304.571C341.681 306.356 342.57 307.175 344.089 307.175C344.929 307.175 345.608 306.874 346.147 306.51L345.566 305.341C345.167 305.593 344.67 305.796 344.215 305.796C343.627 305.796 343.151 305.446 343.151 304.543V301.624H345.72V300.294ZM350.901 300.119C350.082 300.119 349.396 300.413 348.955 301.05V300.294H347.506V307H348.969V303.311C348.969 302.17 349.634 301.512 350.565 301.512C350.922 301.512 351.37 301.596 351.678 301.757L352.028 300.308C351.692 300.175 351.349 300.119 350.901 300.119ZM359.689 300.294H358.226V301.106C357.764 300.511 357.071 300.119 356.119 300.119C354.243 300.119 352.766 301.596 352.766 303.647C352.766 305.698 354.243 307.175 356.119 307.175C357.071 307.175 357.764 306.79 358.226 306.195V307H359.689V300.294ZM356.294 301.498C357.505 301.498 358.317 302.422 358.317 303.647C358.317 304.872 357.505 305.796 356.294 305.796C355.034 305.796 354.271 304.823 354.271 303.647C354.271 302.471 355.034 301.498 356.294 301.498ZM365.499 300.119C364.813 300.119 363.98 300.322 363.441 301.113V300.294H361.985V307H363.455V303.283C363.455 302.135 364.246 301.512 365.191 301.512C366.171 301.512 366.752 302.142 366.752 303.269V307H368.222V302.786C368.222 301.218 367.095 300.119 365.499 300.119ZM375.642 300.833C374.949 300.385 373.976 300.126 372.926 300.126C371.218 300.126 370.154 300.945 370.154 302.275C370.154 303.353 370.945 304.039 372.429 304.242L373.129 304.333C373.927 304.445 374.291 304.697 374.291 305.075C374.291 305.579 373.766 305.894 372.765 305.894C371.673 305.894 371.036 305.579 370.553 305.208L369.874 306.307C370.854 307.035 372.058 307.168 372.751 307.168C374.683 307.168 375.803 306.265 375.803 304.977C375.803 303.829 374.935 303.206 373.472 302.996L372.779 302.891C372.163 302.8 371.673 302.667 371.673 302.198C371.673 301.722 372.142 301.4 372.94 301.4C373.773 301.4 374.606 301.722 375.012 301.974L375.642 300.833ZM383.97 300.294H382.507V301.106C382.045 300.511 381.352 300.119 380.4 300.119C378.524 300.119 377.047 301.596 377.047 303.647C377.047 305.698 378.524 307.175 380.4 307.175C381.352 307.175 382.045 306.79 382.507 306.195V307H383.97V300.294ZM380.575 301.498C381.786 301.498 382.598 302.422 382.598 303.647C382.598 304.872 381.786 305.796 380.575 305.796C379.315 305.796 378.552 304.823 378.552 303.647C378.552 302.471 379.315 301.498 380.575 301.498ZM389.311 300.119C387.176 300.119 385.783 301.638 385.783 303.647C385.783 305.656 387.176 307.175 389.311 307.175C390.312 307.175 391.208 306.811 391.817 306.104L390.914 305.096C390.487 305.495 389.913 305.796 389.269 305.796C388.142 305.796 387.288 304.914 387.288 303.647C387.288 302.38 388.142 301.498 389.269 301.498C389.913 301.498 390.41 301.75 390.879 302.191L391.817 301.19C391.222 300.483 390.312 300.119 389.311 300.119ZM398.097 300.294H395.528V298.264H394.058V300.294H392.721V301.624H394.058V304.571C394.058 306.356 394.947 307.175 396.466 307.175C397.306 307.175 397.985 306.874 398.524 306.51L397.943 305.341C397.544 305.593 397.047 305.796 396.592 305.796C396.004 305.796 395.528 305.446 395.528 304.543V301.624H398.097V300.294ZM401.353 300.294H399.883V307H401.353V300.294ZM400.611 296.941C400.03 296.941 399.589 297.396 399.589 297.977C399.589 298.558 400.03 298.999 400.611 298.999C401.192 298.999 401.647 298.558 401.647 297.977C401.647 297.396 401.192 296.941 400.611 296.941ZM406.765 300.119C404.693 300.119 403.16 301.638 403.16 303.647C403.16 305.656 404.693 307.175 406.765 307.175C408.837 307.175 410.377 305.656 410.377 303.647C410.377 301.638 408.837 300.119 406.765 300.119ZM406.765 301.498C407.962 301.498 408.872 302.38 408.872 303.647C408.872 304.914 407.962 305.796 406.765 305.796C405.568 305.796 404.665 304.914 404.665 303.647C404.665 302.38 405.568 301.498 406.765 301.498ZM415.702 300.119C415.016 300.119 414.183 300.322 413.644 301.113V300.294H412.188V307H413.658V303.283C413.658 302.135 414.449 301.512 415.394 301.512C416.374 301.512 416.955 302.142 416.955 303.269V307H418.425V302.786C418.425 301.218 417.298 300.119 415.702 300.119ZM427.091 300.294H425.628V301.106C425.166 300.511 424.473 300.119 423.521 300.119C421.645 300.119 420.168 301.596 420.168 303.647C420.168 305.698 421.645 307.175 423.521 307.175C424.473 307.175 425.166 306.79 425.628 306.195V307H427.091V300.294ZM423.696 301.498C424.907 301.498 425.719 302.422 425.719 303.647C425.719 304.872 424.907 305.796 423.696 305.796C422.436 305.796 421.673 304.823 421.673 303.647C421.673 302.471 422.436 301.498 423.696 301.498ZM430.857 296.92H429.387V307H430.857V296.92ZM357.547 318.119C355.671 318.119 354.194 319.596 354.194 321.647C354.194 323.698 355.671 325.175 357.547 325.175C358.499 325.175 359.192 324.79 359.654 324.195V325H361.117V314.92H359.654V319.106C359.192 318.511 358.499 318.119 357.547 318.119ZM357.722 319.498C358.933 319.498 359.745 320.422 359.745 321.647C359.745 322.872 358.933 323.796 357.722 323.796C356.462 323.796 355.699 322.823 355.699 321.647C355.699 320.471 356.462 319.498 357.722 319.498ZM369.854 318.294H368.391V319.106C367.929 318.511 367.236 318.119 366.284 318.119C364.408 318.119 362.931 319.596 362.931 321.647C362.931 323.698 364.408 325.175 366.284 325.175C367.236 325.175 367.929 324.79 368.391 324.195V325H369.854V318.294ZM366.459 319.498C367.67 319.498 368.482 320.422 368.482 321.647C368.482 322.872 367.67 323.796 366.459 323.796C365.199 323.796 364.436 322.823 364.436 321.647C364.436 320.471 365.199 319.498 366.459 319.498ZM376.721 318.294H374.152V316.264H372.682V318.294H371.345V319.624H372.682V322.571C372.682 324.356 373.571 325.175 375.09 325.175C375.93 325.175 376.609 324.874 377.148 324.51L376.567 323.341C376.168 323.593 375.671 323.796 375.216 323.796C374.628 323.796 374.152 323.446 374.152 322.543V319.624H376.721V318.294ZM384.947 318.294H383.484V319.106C383.022 318.511 382.329 318.119 381.377 318.119C379.501 318.119 378.024 319.596 378.024 321.647C378.024 323.698 379.501 325.175 381.377 325.175C382.329 325.175 383.022 324.79 383.484 324.195V325H384.947V318.294ZM381.552 319.498C382.763 319.498 383.575 320.422 383.575 321.647C383.575 322.872 382.763 323.796 381.552 323.796C380.292 323.796 379.529 322.823 379.529 321.647C379.529 320.471 380.292 319.498 381.552 319.498ZM390.807 318.119C389.855 318.119 389.169 318.504 388.707 319.092V314.92H387.244V325H388.707V324.202C389.169 324.79 389.855 325.175 390.807 325.175C392.683 325.175 394.16 323.698 394.16 321.647C394.16 319.596 392.683 318.119 390.807 318.119ZM390.632 319.498C391.892 319.498 392.655 320.471 392.655 321.647C392.655 322.823 391.892 323.796 390.632 323.796C389.421 323.796 388.609 322.872 388.609 321.647C388.609 320.422 389.421 319.498 390.632 319.498ZM402.406 318.294H400.943V319.106C400.481 318.511 399.788 318.119 398.836 318.119C396.96 318.119 395.483 319.596 395.483 321.647C395.483 323.698 396.96 325.175 398.836 325.175C399.788 325.175 400.481 324.79 400.943 324.195V325H402.406V318.294ZM399.011 319.498C400.222 319.498 401.034 320.422 401.034 321.647C401.034 322.872 400.222 323.796 399.011 323.796C397.751 323.796 396.988 322.823 396.988 321.647C396.988 320.471 397.751 319.498 399.011 319.498ZM409.897 318.833C409.204 318.385 408.231 318.126 407.181 318.126C405.473 318.126 404.409 318.945 404.409 320.275C404.409 321.353 405.2 322.039 406.684 322.242L407.384 322.333C408.182 322.445 408.546 322.697 408.546 323.075C408.546 323.579 408.021 323.894 407.02 323.894C405.928 323.894 405.291 323.579 404.808 323.208L404.129 324.307C405.109 325.035 406.313 325.168 407.006 325.168C408.938 325.168 410.058 324.265 410.058 322.977C410.058 321.829 409.19 321.206 407.727 320.996L407.034 320.891C406.418 320.8 405.928 320.667 405.928 320.198C405.928 319.722 406.397 319.4 407.195 319.4C408.028 319.4 408.861 319.722 409.267 319.974L409.897 318.833ZM414.641 318.119C412.667 318.119 411.302 319.547 411.302 321.647C411.302 323.775 412.723 325.175 414.732 325.175C415.747 325.175 416.671 324.93 417.49 324.23L416.762 323.187C416.209 323.628 415.495 323.894 414.823 323.894C413.871 323.894 413.024 323.39 412.828 322.186H417.784C417.798 322.018 417.812 321.829 417.812 321.64C417.805 319.547 416.517 318.119 414.641 318.119ZM414.613 319.421C415.544 319.421 416.153 320.03 416.314 321.073H412.835C412.989 320.093 413.57 319.421 414.613 319.421Z" fill="#040531"/>
<path fill-rule="evenodd" clip-rule="evenodd" d="M17 184V212H45V184H17ZM16 181C14.8954 181 14 181.895 14 183V213C14 214.105 14.8954 215 16 215H46C47.1046 215 48 214.105 48 213V183C48 181.895 47.1046 181 46 181H16Z" fill="#040531"/>
<path fill-rule="evenodd" clip-rule="evenodd" d="M33 223L33 219L52.1927 219L52.1926 200.193L56.1926 200.193L56.1927 223L33 223Z" fill="url(#paint4_linear_2_39)"/>
<path d="M28.9972 232.294H27.5342V233.106C27.0722 232.511 26.3792 232.119 25.4272 232.119C23.5512 232.119 22.0742 233.596 22.0742 235.647C22.0742 237.698 23.5512 239.175 25.4272 239.175C26.3792 239.175 27.0722 238.79 27.5342 238.195V239H28.9972V232.294ZM25.6022 233.498C26.8132 233.498 27.6252 234.422 27.6252 235.647C27.6252 236.872 26.8132 237.796 25.6022 237.796C24.3422 237.796 23.5792 236.823 23.5792 235.647C23.5792 234.471 24.3422 233.498 25.6022 233.498ZM34.8565 232.119C33.9045 232.119 33.2185 232.504 32.7565 233.092V232.294H31.2935V241.8H32.7565V238.202C33.2185 238.79 33.9045 239.175 34.8565 239.175C36.7325 239.175 38.2095 237.698 38.2095 235.647C38.2095 233.596 36.7325 232.119 34.8565 232.119ZM34.6815 233.498C35.9415 233.498 36.7045 234.471 36.7045 235.647C36.7045 236.823 35.9415 237.796 34.6815 237.796C33.4705 237.796 32.6585 236.872 32.6585 235.647C32.6585 234.422 33.4705 233.498 34.6815 233.498ZM43.5792 232.119C42.6272 232.119 41.9412 232.504 41.4792 233.092V232.294H40.0162V241.8H41.4792V238.202C41.9412 238.79 42.6272 239.175 43.5792 239.175C45.4552 239.175 46.9322 237.698 46.9322 235.647C46.9322 233.596 45.4552 232.119 43.5792 232.119ZM43.4042 233.498C44.6642 233.498 45.4272 234.471 45.4272 235.647C45.4272 236.823 44.6642 237.796 43.4042 237.796C42.1932 237.796 41.3812 236.872 41.3812 235.647C41.3812 234.422 42.1932 233.498 43.4042 233.498Z" fill="#040531"/>
<path d="M532.72 265.294H530.151V263.264H528.681V265.294H527.344V266.624H528.681V269.571C528.681 271.356 529.57 272.175 531.089 272.175C531.929 272.175 532.608 271.874 533.147 271.51L532.566 270.341C532.167 270.593 531.67 270.796 531.215 270.796C530.627 270.796 530.151 270.446 530.151 269.543V266.624H532.72V265.294ZM537.901 265.119C537.082 265.119 536.396 265.413 535.955 266.05V265.294H534.506V272H535.969V268.311C535.969 267.17 536.634 266.512 537.565 266.512C537.922 266.512 538.37 266.596 538.678 266.757L539.028 265.308C538.692 265.175 538.349 265.119 537.901 265.119ZM546.689 265.294H545.226V266.106C544.764 265.511 544.071 265.119 543.119 265.119C541.243 265.119 539.766 266.596 539.766 268.647C539.766 270.698 541.243 272.175 543.119 272.175C544.071 272.175 544.764 271.79 545.226 271.195V272H546.689V265.294ZM543.294 266.498C544.505 266.498 545.317 267.422 545.317 268.647C545.317 269.872 544.505 270.796 543.294 270.796C542.034 270.796 541.271 269.823 541.271 268.647C541.271 267.471 542.034 266.498 543.294 266.498ZM552.499 265.119C551.813 265.119 550.98 265.322 550.441 266.113V265.294H548.985V272H550.455V268.283C550.455 267.135 551.246 266.512 552.191 266.512C553.171 266.512 553.752 267.142 553.752 268.269V272H555.222V267.786C555.222 266.218 554.095 265.119 552.499 265.119ZM562.642 265.833C561.949 265.385 560.976 265.126 559.926 265.126C558.218 265.126 557.154 265.945 557.154 267.275C557.154 268.353 557.945 269.039 559.429 269.242L560.129 269.333C560.927 269.445 561.291 269.697 561.291 270.075C561.291 270.579 560.766 270.894 559.765 270.894C558.673 270.894 558.036 270.579 557.553 270.208L556.874 271.307C557.854 272.035 559.058 272.168 559.751 272.168C561.683 272.168 562.803 271.265 562.803 269.977C562.803 268.829 561.935 268.206 560.472 267.996L559.779 267.891C559.163 267.8 558.673 267.667 558.673 267.198C558.673 266.722 559.142 266.4 559.94 266.4C560.773 266.4 561.606 266.722 562.012 266.974L562.642 265.833ZM570.97 265.294H569.507V266.106C569.045 265.511 568.352 265.119 567.4 265.119C565.524 265.119 564.047 266.596 564.047 268.647C564.047 270.698 565.524 272.175 567.4 272.175C568.352 272.175 569.045 271.79 569.507 271.195V272H570.97V265.294ZM567.575 266.498C568.786 266.498 569.598 267.422 569.598 268.647C569.598 269.872 568.786 270.796 567.575 270.796C566.315 270.796 565.552 269.823 565.552 268.647C565.552 267.471 566.315 266.498 567.575 266.498ZM576.311 265.119C574.176 265.119 572.783 266.638 572.783 268.647C572.783 270.656 574.176 272.175 576.311 272.175C577.312 272.175 578.208 271.811 578.817 271.104L577.914 270.096C577.487 270.495 576.913 270.796 576.269 270.796C575.142 270.796 574.288 269.914 574.288 268.647C574.288 267.38 575.142 266.498 576.269 266.498C576.913 266.498 577.41 266.75 577.879 267.191L578.817 266.19C578.222 265.483 577.312 265.119 576.311 265.119ZM585.097 265.294H582.528V263.264H581.058V265.294H579.721V266.624H581.058V269.571C581.058 271.356 581.947 272.175 583.466 272.175C584.306 272.175 584.985 271.874 585.524 271.51L584.943 270.341C584.544 270.593 584.047 270.796 583.592 270.796C583.004 270.796 582.528 270.446 582.528 269.543V266.624H585.097V265.294ZM588.353 265.294H586.883V272H588.353V265.294ZM587.611 261.941C587.03 261.941 586.589 262.396 586.589 262.977C586.589 263.558 587.03 263.999 587.611 263.999C588.192 263.999 588.647 263.558 588.647 262.977C588.647 262.396 588.192 261.941 587.611 261.941ZM593.765 265.119C591.693 265.119 590.16 266.638 590.16 268.647C590.16 270.656 591.693 272.175 593.765 272.175C595.837 272.175 597.377 270.656 597.377 268.647C597.377 266.638 595.837 265.119 593.765 265.119ZM593.765 266.498C594.962 266.498 595.872 267.38 595.872 268.647C595.872 269.914 594.962 270.796 593.765 270.796C592.568 270.796 591.665 269.914 591.665 268.647C591.665 267.38 592.568 266.498 593.765 266.498ZM602.702 265.119C602.016 265.119 601.183 265.322 600.644 266.113V265.294H599.188V272H600.658V268.283C600.658 267.135 601.449 266.512 602.394 266.512C603.374 266.512 603.955 267.142 603.955 268.269V272H605.425V267.786C605.425 266.218 604.298 265.119 602.702 265.119ZM614.091 265.294H612.628V266.106C612.166 265.511 611.473 265.119 610.521 265.119C608.645 265.119 607.168 266.596 607.168 268.647C607.168 270.698 608.645 272.175 610.521 272.175C611.473 272.175 612.166 271.79 612.628 271.195V272H614.091V265.294ZM610.696 266.498C611.907 266.498 612.719 267.422 612.719 268.647C612.719 269.872 611.907 270.796 610.696 270.796C609.436 270.796 608.673 269.823 608.673 268.647C608.673 267.471 609.436 266.498 610.696 266.498ZM617.857 261.92H616.387V272H617.857V261.92ZM567.497 283.294H566.034V284.106C565.572 283.511 564.879 283.119 563.927 283.119C562.051 283.119 560.574 284.596 560.574 286.647C560.574 288.698 562.051 290.175 563.927 290.175C564.879 290.175 565.572 289.79 566.034 289.195V290H567.497V283.294ZM564.102 284.498C565.313 284.498 566.125 285.422 566.125 286.647C566.125 287.872 565.313 288.796 564.102 288.796C562.842 288.796 562.079 287.823 562.079 286.647C562.079 285.471 562.842 284.498 564.102 284.498ZM573.357 283.119C572.405 283.119 571.719 283.504 571.257 284.092V283.294H569.794V292.8H571.257V289.202C571.719 289.79 572.405 290.175 573.357 290.175C575.233 290.175 576.71 288.698 576.71 286.647C576.71 284.596 575.233 283.119 573.357 283.119ZM573.182 284.498C574.442 284.498 575.205 285.471 575.205 286.647C575.205 287.823 574.442 288.796 573.182 288.796C571.971 288.796 571.159 287.872 571.159 286.647C571.159 285.422 571.971 284.498 573.182 284.498ZM582.079 283.119C581.127 283.119 580.441 283.504 579.979 284.092V283.294H578.516V292.8H579.979V289.202C580.441 289.79 581.127 290.175 582.079 290.175C583.955 290.175 585.432 288.698 585.432 286.647C585.432 284.596 583.955 283.119 582.079 283.119ZM581.904 284.498C583.164 284.498 583.927 285.471 583.927 286.647C583.927 287.823 583.164 288.796 581.904 288.796C580.693 288.796 579.881 287.872 579.881 286.647C579.881 285.422 580.693 284.498 581.904 284.498Z" fill="#040531"/>
<path d="M523.792 166.294H522.329V167.106C521.867 166.511 521.174 166.119 520.222 166.119C518.346 166.119 516.869 167.596 516.869 169.647C516.869 171.698 518.346 173.175 520.222 173.175C521.174 173.175 521.867 172.79 522.329 172.195V173H523.792V166.294ZM520.397 167.498C521.608 167.498 522.42 168.422 522.42 169.647C522.42 170.872 521.608 171.796 520.397 171.796C519.137 171.796 518.374 170.823 518.374 169.647C518.374 168.471 519.137 167.498 520.397 167.498ZM528.958 166.119C527.082 166.119 525.605 167.596 525.605 169.647C525.605 171.698 527.082 173.175 528.958 173.175C529.91 173.175 530.603 172.79 531.065 172.195V173H532.528V162.92H531.065V167.106C530.603 166.511 529.91 166.119 528.958 166.119ZM529.133 167.498C530.344 167.498 531.156 168.422 531.156 169.647C531.156 170.872 530.344 171.796 529.133 171.796C527.873 171.796 527.11 170.823 527.11 169.647C527.11 168.471 527.873 167.498 529.133 167.498ZM538.668 168.604H534.608V169.934H538.668V168.604ZM542.215 162.92H540.745V173H542.215V169.283C542.215 168.135 543.006 167.512 543.951 167.512C544.931 167.512 545.512 168.142 545.512 169.269V173H546.982V168.786C546.982 167.218 545.855 166.119 544.259 166.119C543.58 166.119 542.754 166.322 542.215 167.092V162.92ZM552.33 166.119C550.258 166.119 548.725 167.638 548.725 169.647C548.725 171.656 550.258 173.175 552.33 173.175C554.402 173.175 555.942 171.656 555.942 169.647C555.942 167.638 554.402 166.119 552.33 166.119ZM552.33 167.498C553.527 167.498 554.437 168.38 554.437 169.647C554.437 170.914 553.527 171.796 552.33 171.796C551.133 171.796 550.23 170.914 550.23 169.647C550.23 168.38 551.133 167.498 552.33 167.498ZM560.797 166.119C558.662 166.119 557.269 167.638 557.269 169.647C557.269 171.656 558.662 173.175 560.797 173.175C561.798 173.175 562.694 172.811 563.303 172.104L562.4 171.096C561.973 171.495 561.399 171.796 560.755 171.796C559.628 171.796 558.774 170.914 558.774 169.647C558.774 168.38 559.628 167.498 560.755 167.498C561.399 167.498 561.896 167.75 562.365 168.191L563.303 167.19C562.708 166.483 561.798 166.119 560.797 166.119ZM519.204 184.119C517.328 184.119 515.851 185.596 515.851 187.647C515.851 189.698 517.328 191.175 519.204 191.175C520.156 191.175 520.849 190.79 521.311 190.195V193.8H522.774V184.294H521.311V185.106C520.849 184.511 520.156 184.119 519.204 184.119ZM519.379 185.498C520.59 185.498 521.402 186.422 521.402 187.647C521.402 188.872 520.59 189.796 519.379 189.796C518.119 189.796 517.356 188.823 517.356 187.647C517.356 186.471 518.119 185.498 519.379 185.498ZM531.216 184.294H529.746V188.025C529.746 189.32 529.025 189.796 528.108 189.796C527.191 189.796 526.47 189.32 526.47 188.025V184.294H525V188.158C525 190.293 526.533 191.175 528.108 191.175C529.676 191.175 531.216 190.293 531.216 188.158V184.294ZM536.293 184.119C534.319 184.119 532.954 185.547 532.954 187.647C532.954 189.775 534.375 191.175 536.384 191.175C537.399 191.175 538.323 190.93 539.142 190.23L538.414 189.187C537.861 189.628 537.147 189.894 536.475 189.894C535.523 189.894 534.676 189.39 534.48 188.186H539.436C539.45 188.018 539.464 187.829 539.464 187.64C539.457 185.547 538.169 184.119 536.293 184.119ZM536.265 185.421C537.196 185.421 537.805 186.03 537.966 187.073H534.487C534.641 186.093 535.222 185.421 536.265 185.421ZM544.666 184.119C543.847 184.119 543.161 184.413 542.72 185.05V184.294H541.271V191H542.734V187.311C542.734 186.17 543.399 185.512 544.33 185.512C544.687 185.512 545.135 185.596 545.443 185.757L545.793 184.308C545.457 184.175 545.114 184.119 544.666 184.119ZM548.757 184.294H547.287V191H548.757V184.294ZM548.015 180.941C547.434 180.941 546.993 181.396 546.993 181.977C546.993 182.558 547.434 182.999 548.015 182.999C548.596 182.999 549.051 182.558 549.051 181.977C549.051 181.396 548.596 180.941 548.015 180.941ZM553.902 184.119C551.928 184.119 550.563 185.547 550.563 187.647C550.563 189.775 551.984 191.175 553.993 191.175C555.008 191.175 555.932 190.93 556.751 190.23L556.023 189.187C555.47 189.628 554.756 189.894 554.084 189.894C553.132 189.894 552.285 189.39 552.089 188.186H557.045C557.059 188.018 557.073 187.829 557.073 187.64C557.066 185.547 555.778 184.119 553.902 184.119ZM553.874 185.421C554.805 185.421 555.414 186.03 555.575 187.073H552.096C552.25 186.093 552.831 185.421 553.874 185.421ZM564.074 184.833C563.381 184.385 562.408 184.126 561.358 184.126C559.65 184.126 558.586 184.945 558.586 186.275C558.586 187.353 559.377 188.039 560.861 188.242L561.561 188.333C562.359 188.445 562.723 188.697 562.723 189.075C562.723 189.579 562.198 189.894 561.197 189.894C560.105 189.894 559.468 189.579 558.985 189.208L558.306 190.307C559.286 191.035 560.49 191.168 561.183 191.168C563.115 191.168 564.235 190.265 564.235 188.977C564.235 187.829 563.367 187.206 561.904 186.996L561.211 186.891C560.595 186.8 560.105 186.667 560.105 186.198C560.105 185.722 560.574 185.4 561.372 185.4C562.205 185.4 563.038 185.722 563.444 185.974L564.074 184.833Z" fill="#040531"/>
<path d="M146 202L131 193.34V210.66L146 202ZM68 203.5L132.5 203.5V200.5L68 200.5V203.5Z" fill="#040531"/>
<path fill-rule="evenodd" clip-rule="evenodd" d="M17 101V129H45V101H17ZM16 98C14.8954 98 14 98.8954 14 100V130C14 131.105 14.8954 132 16 132H46C47.1046 132 48 131.105 48 130V100C48 98.8954 47.1046 98 46 98H16Z" fill="#040531"/>
<path fill-rule="evenodd" clip-rule="evenodd" d="M33 140L33 136L52.1927 136L52.1926 117.193L56.1926 117.193L56.1927 140L33 140Z" fill="url(#paint5_linear_2_39)"/>
<path d="M28.9972 149.294H27.5342V150.106C27.0722 149.511 26.3792 149.119 25.4272 149.119C23.5512 149.119 22.0742 150.596 22.0742 152.647C22.0742 154.698 23.5512 156.175 25.4272 156.175C26.3792 156.175 27.0722 155.79 27.5342 155.195V156H28.9972V149.294ZM25.6022 150.498C26.8132 150.498 27.6252 151.422 27.6252 152.647C27.6252 153.872 26.8132 154.796 25.6022 154.796C24.3422 154.796 23.5792 153.823 23.5792 152.647C23.5792 151.471 24.3422 150.498 25.6022 150.498ZM34.8565 149.119C33.9045 149.119 33.2185 149.504 32.7565 150.092V149.294H31.2935V158.8H32.7565V155.202C33.2185 155.79 33.9045 156.175 34.8565 156.175C36.7325 156.175 38.2095 154.698 38.2095 152.647C38.2095 150.596 36.7325 149.119 34.8565 149.119ZM34.6815 150.498C35.9415 150.498 36.7045 151.471 36.7045 152.647C36.7045 153.823 35.9415 154.796 34.6815 154.796C33.4705 154.796 32.6585 153.872 32.6585 152.647C32.6585 151.422 33.4705 150.498 34.6815 150.498ZM43.5792 149.119C42.6272 149.119 41.9412 149.504 41.4792 150.092V149.294H40.0162V158.8H41.4792V155.202C41.9412 155.79 42.6272 156.175 43.5792 156.175C45.4552 156.175 46.9322 154.698 46.9322 152.647C46.9322 150.596 45.4552 149.119 43.5792 149.119ZM43.4042 150.498C44.6642 150.498 45.4272 151.471 45.4272 152.647C45.4272 153.823 44.6642 154.796 43.4042 154.796C42.1932 154.796 41.3812 153.872 41.3812 152.647C41.3812 151.422 42.1932 150.498 43.4042 150.498Z" fill="#040531"/>
<path d="M281.424 248.119C279.289 248.119 277.896 249.638 277.896 251.647C277.896 253.656 279.289 255.175 281.424 255.175C282.425 255.175 283.321 254.811 283.93 254.104L283.027 253.096C282.6 253.495 282.026 253.796 281.382 253.796C280.255 253.796 279.401 252.914 279.401 251.647C279.401 250.38 280.255 249.498 281.382 249.498C282.026 249.498 282.523 249.75 282.992 250.191L283.93 249.19C283.335 248.483 282.425 248.119 281.424 248.119ZM288.556 248.119C286.484 248.119 284.951 249.638 284.951 251.647C284.951 253.656 286.484 255.175 288.556 255.175C290.628 255.175 292.168 253.656 292.168 251.647C292.168 249.638 290.628 248.119 288.556 248.119ZM288.556 249.498C289.753 249.498 290.663 250.38 290.663 251.647C290.663 252.914 289.753 253.796 288.556 253.796C287.359 253.796 286.456 252.914 286.456 251.647C286.456 250.38 287.359 249.498 288.556 249.498ZM297.493 248.119C296.807 248.119 295.974 248.322 295.435 249.113V248.294H293.979V255H295.449V251.283C295.449 250.135 296.24 249.512 297.185 249.512C298.165 249.512 298.746 250.142 298.746 251.269V255H300.216V250.786C300.216 249.218 299.089 248.119 297.493 248.119ZM305.956 248.119C305.27 248.119 304.437 248.322 303.898 249.113V248.294H302.442V255H303.912V251.283C303.912 250.135 304.703 249.512 305.648 249.512C306.628 249.512 307.209 250.142 307.209 251.269V255H308.679V250.786C308.679 249.218 307.552 248.119 305.956 248.119ZM313.761 248.119C311.787 248.119 310.422 249.547 310.422 251.647C310.422 253.775 311.843 255.175 313.852 255.175C314.867 255.175 315.791 254.93 316.61 254.23L315.882 253.187C315.329 253.628 314.615 253.894 313.943 253.894C312.991 253.894 312.144 253.39 311.948 252.186H316.904C316.918 252.018 316.932 251.829 316.932 251.64C316.925 249.547 315.637 248.119 313.761 248.119ZM313.733 249.421C314.664 249.421 315.273 250.03 315.434 251.073H311.955C312.109 250.093 312.69 249.421 313.733 249.421ZM321.784 248.119C319.649 248.119 318.256 249.638 318.256 251.647C318.256 253.656 319.649 255.175 321.784 255.175C322.785 255.175 323.681 254.811 324.29 254.104L323.387 253.096C322.96 253.495 322.386 253.796 321.742 253.796C320.615 253.796 319.761 252.914 319.761 251.647C319.761 250.38 320.615 249.498 321.742 249.498C322.386 249.498 322.883 249.75 323.352 250.191L324.29 249.19C323.695 248.483 322.785 248.119 321.784 248.119ZM330.57 248.294H328.001V246.264H326.531V248.294H325.194V249.624H326.531V252.571C326.531 254.356 327.42 255.175 328.939 255.175C329.779 255.175 330.458 254.874 330.997 254.51L330.416 253.341C330.017 253.593 329.52 253.796 329.065 253.796C328.477 253.796 328.001 253.446 328.001 252.543V249.624H330.57V248.294ZM335.478 248.119C333.406 248.119 331.873 249.638 331.873 251.647C331.873 253.656 333.406 255.175 335.478 255.175C337.55 255.175 339.09 253.656 339.09 251.647C339.09 249.638 337.55 248.119 335.478 248.119ZM335.478 249.498C336.675 249.498 337.585 250.38 337.585 251.647C337.585 252.914 336.675 253.796 335.478 253.796C334.281 253.796 333.378 252.914 333.378 251.647C333.378 250.38 334.281 249.498 335.478 249.498ZM344.296 248.119C343.477 248.119 342.791 248.413 342.35 249.05V248.294H340.901V255H342.364V251.311C342.364 250.17 343.029 249.512 343.96 249.512C344.317 249.512 344.765 249.596 345.073 249.757L345.423 248.308C345.087 248.175 344.744 248.119 344.296 248.119Z" fill="#040531"/>
<path d="M146 119L131 110.34V127.66L146 119ZM68 120.5L132.5 120.5V117.5L68 117.5V120.5Z" fill="#040531"/>
<path d="M354 273L339 264.34V281.66L354 273ZM276 274.5H340.5V271.5H276V274.5Z" fill="#040531"/>
<rect x="295" y="256" width="36" height="41" fill="#F4FCFF"/>
<path fill-rule="evenodd" clip-rule="evenodd" d="M312.548 283.804C312.378 284.081 312.076 284.25 311.75 284.25H305.187C304.861 284.25 304.558 284.08 304.387 283.801L298.45 274.077C298.268 273.779 298.267 273.404 298.447 273.105L305.009 262.204C305.179 261.922 305.484 261.75 305.812 261.75H310.812C311.33 261.75 311.75 262.17 311.75 262.688C311.75 263.205 311.33 263.625 310.812 263.625H306.342L300.346 273.585L305.714 282.375H311.226L313.452 278.759C313.723 278.318 314.3 278.18 314.741 278.452C315.182 278.723 315.32 279.3 315.048 279.741L312.548 283.804Z" fill="#040531"/>
<path fill-rule="evenodd" clip-rule="evenodd" d="M313.452 262.196C313.622 261.919 313.924 261.75 314.25 261.75H320.813C321.139 261.75 321.442 261.92 321.613 262.199L327.55 271.923C327.732 272.221 327.733 272.596 327.553 272.895L320.991 283.796C320.821 284.078 320.516 284.25 320.188 284.25H315.188C314.67 284.25 314.25 283.83 314.25 283.312C314.25 282.795 314.67 282.375 315.188 282.375H319.658L325.654 272.415L320.286 263.625H314.774L312.548 267.241C312.277 267.682 311.7 267.82 311.259 267.548C310.818 267.277 310.68 266.7 310.952 266.259L313.452 262.196Z" fill="#040531"/>
<rect x="315.5" y="270.5" width="5" height="5" transform="rotate(90 315.5 270.5)" fill="url(#paint6_linear_2_39)"/>
<path fill-rule="evenodd" clip-rule="evenodd" d="M402.5 137.5L402.5 172.594L402.5 172.604L402.5 172.607V172.609C402.5 173.999 401.56 175.017 400.606 175.688C399.61 176.388 398.266 176.958 396.742 177.412C393.672 178.325 389.521 178.868 385 178.868C380.479 178.868 376.328 178.325 373.259 177.412C371.734 176.958 370.39 176.388 369.395 175.688C368.44 175.017 367.5 173.999 367.5 172.609L367.5 172.594L367.5 137.5L370.5 137.5L370.5 172.597C370.507 172.624 370.575 172.851 371.12 173.234C371.744 173.673 372.744 174.129 374.114 174.536C376.836 175.346 380.685 175.868 385 175.868C389.315 175.868 393.165 175.346 395.886 174.536C397.257 174.129 398.256 173.673 398.88 173.234C399.427 172.85 399.494 172.623 399.5 172.597L399.5 172.594L399.5 137.5L402.5 137.5Z" fill="#040531"/>
<path fill-rule="evenodd" clip-rule="evenodd" d="M370.522 137.5C370.572 137.58 370.712 137.753 371.088 138.003C371.713 138.418 372.717 138.851 374.093 139.238C376.822 140.006 380.679 140.5 385 140.5C389.321 140.5 393.178 140.006 395.908 139.238C397.283 138.851 398.287 138.418 398.912 138.003C399.288 137.753 399.428 137.58 399.478 137.5C399.428 137.42 399.288 137.247 398.912 136.997C398.287 136.582 397.283 136.149 395.908 135.762C393.178 134.994 389.321 134.5 385 134.5C380.679 134.5 376.822 134.994 374.093 135.762C372.717 136.149 371.713 136.582 371.088 136.997C370.712 137.247 370.572 137.42 370.522 137.5ZM373.28 132.874C376.342 132.013 380.485 131.5 385 131.5C389.515 131.5 393.659 132.013 396.72 132.874C398.24 133.302 399.579 133.838 400.573 134.499C401.51 135.122 402.5 136.106 402.5 137.5C402.5 138.894 401.51 139.878 400.573 140.501C399.579 141.162 398.24 141.698 396.72 142.126C393.659 142.987 389.515 143.5 385 143.5C380.485 143.5 376.342 142.987 373.28 142.126C371.76 141.698 370.421 141.162 369.427 140.501C368.49 139.878 367.5 138.894 367.5 137.5C367.5 136.106 368.49 135.122 369.427 134.499C370.421 133.838 371.76 133.302 373.28 132.874Z" fill="#040531"/>
<rect x="361" y="149" width="28" height="4" fill="url(#paint7_linear_2_39)" style="mix-blend-mode:multiply"/>
<path d="M361.101 186.294H359.638V187.106C359.176 186.511 358.483 186.119 357.531 186.119C355.655 186.119 354.178 187.596 354.178 189.647C354.178 191.698 355.655 193.175 357.531 193.175C358.483 193.175 359.176 192.79 359.638 192.195V193H361.101V186.294ZM357.706 187.498C358.917 187.498 359.729 188.422 359.729 189.647C359.729 190.872 358.917 191.796 357.706 191.796C356.446 191.796 355.683 190.823 355.683 189.647C355.683 188.471 356.446 187.498 357.706 187.498ZM366.911 186.119C366.225 186.119 365.392 186.322 364.853 187.113V186.294H363.397V193H364.867V189.283C364.867 188.135 365.658 187.512 366.603 187.512C367.583 187.512 368.164 188.142 368.164 189.269V193H369.634V188.786C369.634 187.218 368.507 186.119 366.911 186.119ZM378.3 186.294H376.837V187.106C376.375 186.511 375.682 186.119 374.73 186.119C372.854 186.119 371.377 187.596 371.377 189.647C371.377 191.698 372.854 193.175 374.73 193.175C375.682 193.175 376.375 192.79 376.837 192.195V193H378.3V186.294ZM374.905 187.498C376.116 187.498 376.928 188.422 376.928 189.647C376.928 190.872 376.116 191.796 374.905 191.796C373.645 191.796 372.882 190.823 372.882 189.647C372.882 188.471 373.645 187.498 374.905 187.498ZM382.066 182.92H380.596V193H382.066V182.92ZM390.81 186.294H389.2L387.121 190.144L384.965 186.294H383.32L386.295 191.621L383.894 195.842H385.518L390.81 186.294ZM396.816 186.294H394.247V184.264H392.777V186.294H391.44V187.624H392.777V190.571C392.777 192.356 393.666 193.175 395.185 193.175C396.025 193.175 396.704 192.874 397.243 192.51L396.662 191.341C396.263 191.593 395.766 191.796 395.311 191.796C394.723 191.796 394.247 191.446 394.247 190.543V187.624H396.816V186.294ZM400.072 186.294H398.602V193H400.072V186.294ZM399.33 182.941C398.749 182.941 398.308 183.396 398.308 183.977C398.308 184.558 398.749 184.999 399.33 184.999C399.911 184.999 400.366 184.558 400.366 183.977C400.366 183.396 399.911 182.941 399.33 182.941ZM405.407 186.119C403.272 186.119 401.879 187.638 401.879 189.647C401.879 191.656 403.272 193.175 405.407 193.175C406.408 193.175 407.304 192.811 407.913 192.104L407.01 191.096C406.583 191.495 406.009 191.796 405.365 191.796C404.238 191.796 403.384 190.914 403.384 189.647C403.384 188.38 404.238 187.498 405.365 187.498C406.009 187.498 406.506 187.75 406.975 188.191L407.913 187.19C407.318 186.483 406.408 186.119 405.407 186.119ZM414.747 186.833C414.054 186.385 413.081 186.126 412.031 186.126C410.323 186.126 409.259 186.945 409.259 188.275C409.259 189.353 410.05 190.039 411.534 190.242L412.234 190.333C413.032 190.445 413.396 190.697 413.396 191.075C413.396 191.579 412.871 191.894 411.87 191.894C410.778 191.894 410.141 191.579 409.658 191.208L408.979 192.307C409.959 193.035 411.163 193.168 411.856 193.168C413.788 193.168 414.908 192.265 414.908 190.977C414.908 189.829 414.04 189.206 412.577 188.996L411.884 188.891C411.268 188.8 410.778 188.667 410.778 188.198C410.778 187.722 411.247 187.4 412.045 187.4C412.878 187.4 413.711 187.722 414.117 187.974L414.747 186.833ZM356.047 204.119C354.171 204.119 352.694 205.596 352.694 207.647C352.694 209.698 354.171 211.175 356.047 211.175C356.999 211.175 357.692 210.79 358.154 210.195V211H359.617V200.92H358.154V205.106C357.692 204.511 356.999 204.119 356.047 204.119ZM356.222 205.498C357.433 205.498 358.245 206.422 358.245 207.647C358.245 208.872 357.433 209.796 356.222 209.796C354.962 209.796 354.199 208.823 354.199 207.647C354.199 206.471 354.962 205.498 356.222 205.498ZM368.354 204.294H366.891V205.106C366.429 204.511 365.736 204.119 364.784 204.119C362.908 204.119 361.431 205.596 361.431 207.647C361.431 209.698 362.908 211.175 364.784 211.175C365.736 211.175 366.429 210.79 366.891 210.195V211H368.354V204.294ZM364.959 205.498C366.17 205.498 366.982 206.422 366.982 207.647C366.982 208.872 366.17 209.796 364.959 209.796C363.699 209.796 362.936 208.823 362.936 207.647C362.936 206.471 363.699 205.498 364.959 205.498ZM375.221 204.294H372.652V202.264H371.182V204.294H369.845V205.624H371.182V208.571C371.182 210.356 372.071 211.175 373.59 211.175C374.43 211.175 375.109 210.874 375.648 210.51L375.067 209.341C374.668 209.593 374.171 209.796 373.716 209.796C373.128 209.796 372.652 209.446 372.652 208.543V205.624H375.221V204.294ZM383.447 204.294H381.984V205.106C381.522 204.511 380.829 204.119 379.877 204.119C378.001 204.119 376.524 205.596 376.524 207.647C376.524 209.698 378.001 211.175 379.877 211.175C380.829 211.175 381.522 210.79 381.984 210.195V211H383.447V204.294ZM380.052 205.498C381.263 205.498 382.075 206.422 382.075 207.647C382.075 208.872 381.263 209.796 380.052 209.796C378.792 209.796 378.029 208.823 378.029 207.647C378.029 206.471 378.792 205.498 380.052 205.498ZM389.307 204.119C388.355 204.119 387.669 204.504 387.207 205.092V200.92H385.744V211H387.207V210.202C387.669 210.79 388.355 211.175 389.307 211.175C391.183 211.175 392.66 209.698 392.66 207.647C392.66 205.596 391.183 204.119 389.307 204.119ZM389.132 205.498C390.392 205.498 391.155 206.471 391.155 207.647C391.155 208.823 390.392 209.796 389.132 209.796C387.921 209.796 387.109 208.872 387.109 207.647C387.109 206.422 387.921 205.498 389.132 205.498ZM400.906 204.294H399.443V205.106C398.981 204.511 398.288 204.119 397.336 204.119C395.46 204.119 393.983 205.596 393.983 207.647C393.983 209.698 395.46 211.175 397.336 211.175C398.288 211.175 398.981 210.79 399.443 210.195V211H400.906V204.294ZM397.511 205.498C398.722 205.498 399.534 206.422 399.534 207.647C399.534 208.872 398.722 209.796 397.511 209.796C396.251 209.796 395.488 208.823 395.488 207.647C395.488 206.471 396.251 205.498 397.511 205.498ZM408.397 204.833C407.704 204.385 406.731 204.126 405.681 204.126C403.973 204.126 402.909 204.945 402.909 206.275C402.909 207.353 403.7 208.039 405.184 208.242L405.884 208.333C406.682 208.445 407.046 208.697 407.046 209.075C407.046 209.579 406.521 209.894 405.52 209.894C404.428 209.894 403.791 209.579 403.308 209.208L402.629 210.307C403.609 211.035 404.813 211.168 405.506 211.168C407.438 211.168 408.558 210.265 408.558 208.977C408.558 207.829 407.69 207.206 406.227 206.996L405.534 206.891C404.918 206.8 404.428 206.667 404.428 206.198C404.428 205.722 404.897 205.4 405.695 205.4C406.528 205.4 407.361 205.722 407.767 205.974L408.397 204.833ZM413.141 204.119C411.167 204.119 409.802 205.547 409.802 207.647C409.802 209.775 411.223 211.175 413.232 211.175C414.247 211.175 415.171 210.93 415.99 210.23L415.262 209.187C414.709 209.628 413.995 209.894 413.323 209.894C412.371 209.894 411.524 209.39 411.328 208.186H416.284C416.298 208.018 416.312 207.829 416.312 207.64C416.305 205.547 415.017 204.119 413.141 204.119ZM413.113 205.421C414.044 205.421 414.653 206.03 414.814 207.073H411.335C411.489 206.093 412.07 205.421 413.113 205.421Z" fill="#040531"/>
<path d="M354 173L339 164.34V181.66L354 173ZM276 174.5L340.5 174.5V171.5L276 171.5V174.5Z" fill="#040531"/>
<path d="M461 173L451 167.226V178.774L461 173ZM411 174H452V172H411V174Z" fill="#040531"/>
<path d="M467 273L457 267.226V278.774L467 273ZM417 274H458V272H417V274Z" fill="#040531"/>
<rect x="295" y="154" width="36" height="41" fill="#F4FCFF"/>
<path fill-rule="evenodd" clip-rule="evenodd" d="M312.548 183.804C312.378 184.081 312.076 184.25 311.75 184.25H305.187C304.861 184.25 304.558 184.08 304.387 183.801L298.45 174.077C298.268 173.779 298.267 173.404 298.447 173.105L305.009 162.204C305.179 161.922 305.484 161.75 305.812 161.75H310.812C311.33 161.75 311.75 162.17 311.75 162.688C311.75 163.205 311.33 163.625 310.812 163.625H306.342L300.346 173.585L305.714 182.375H311.226L313.452 178.759C313.723 178.318 314.3 178.18 314.741 178.452C315.182 178.723 315.32 179.3 315.048 179.741L312.548 183.804Z" fill="#040531"/>
<path fill-rule="evenodd" clip-rule="evenodd" d="M313.452 162.196C313.622 161.919 313.924 161.75 314.25 161.75H320.813C321.139 161.75 321.442 161.92 321.613 162.199L327.55 171.923C327.732 172.221 327.733 172.596 327.553 172.895L320.991 183.796C320.821 184.078 320.516 184.25 320.188 184.25H315.188C314.67 184.25 314.25 183.83 314.25 183.312C314.25 182.795 314.67 182.375 315.188 182.375H319.658L325.654 172.415L320.286 163.625H314.774L312.548 167.241C312.277 167.682 311.7 167.82 311.259 167.548C310.818 167.277 310.68 166.7 310.952 166.259L313.452 162.196Z" fill="#040531"/>
<rect x="315.5" y="170.5" width="5" height="5" transform="rotate(90 315.5 170.5)" fill="url(#paint8_linear_2_39)"/>
<rect x="464" y="181" width="28" height="4" fill="url(#paint9_linear_2_39)"/>
<path fill-rule="evenodd" clip-rule="evenodd" d="M470.223 191L505.777 191C504.404 181.833 496.869 175 488 175C479.131 175 471.595 181.833 470.223 191ZM467.085 192.001C468.049 180.788 477.045 172 488 172C498.955 172 507.95 180.788 508.914 192.001C509.009 193.102 508.105 194 507 194L469 194C467.895 194 466.991 193.102 467.085 192.001Z" fill="#040531"/>
<path fill-rule="evenodd" clip-rule="evenodd" d="M488 169C491.866 169 495 165.866 495 162C495 158.134 491.866 155 488 155C484.134 155 481 158.134 481 162C481 165.866 484.134 169 488 169ZM488 172C493.523 172 498 167.523 498 162C498 156.477 493.523 152 488 152C482.477 152 478 156.477 478 162C478 167.523 482.477 172 488 172Z" fill="#040531"/>
<defs>
<linearGradient id="paint0_linear_2_39" x1="353" y1="73" x2="353" y2="81" gradientUnits="userSpaceOnUse">
<stop stop-color="#38CCED"/>
<stop offset="1" stop-color="#38CCED" stop-opacity="0.4"/>
</linearGradient>
<linearGradient id="paint1_linear_2_39" x1="515.872" y1="293.303" x2="515.872" y2="275.193" gradientUnits="userSpaceOnUse">
<stop stop-color="#38CCED"/>
<stop offset="1" stop-color="#38CCED" stop-opacity="0.4"/>
</linearGradient>
<linearGradient id="paint2_linear_2_39" x1="8" y1="5.54708e-06" x2="0" y2="5.63401e-06" gradientUnits="userSpaceOnUse">
<stop stop-color="#38CCED"/>
<stop offset="1" stop-color="#38CCED" stop-opacity="0.4"/>
</linearGradient>
<linearGradient id="paint3_linear_2_39" x1="391" y1="263" x2="363" y2="263" gradientUnits="userSpaceOnUse">
<stop stop-color="#38CCED"/>
<stop offset="1" stop-color="#38CCED" stop-opacity="0.4"/>
</linearGradient>
<linearGradient id="paint4_linear_2_39" x1="47.8722" y1="218.303" x2="47.8722" y2="200.193" gradientUnits="userSpaceOnUse">
<stop stop-color="#38CCED"/>
<stop offset="1" stop-color="#38CCED" stop-opacity="0.4"/>
</linearGradient>
<linearGradient id="paint5_linear_2_39" x1="47.8722" y1="135.303" x2="47.8722" y2="117.193" gradientUnits="userSpaceOnUse">
<stop stop-color="#38CCED"/>
<stop offset="1" stop-color="#38CCED" stop-opacity="0.4"/>
</linearGradient>
<linearGradient id="paint6_linear_2_39" x1="318" y1="270.5" x2="318" y2="275.5" gradientUnits="userSpaceOnUse">
<stop stop-color="#38CCED"/>
<stop offset="1" stop-color="#38CCED" stop-opacity="0.4"/>
</linearGradient>
<linearGradient id="paint7_linear_2_39" x1="389" y1="149" x2="361" y2="149" gradientUnits="userSpaceOnUse">
<stop stop-color="#38CCED"/>
<stop offset="1" stop-color="#38CCED" stop-opacity="0.4"/>
</linearGradient>
<linearGradient id="paint8_linear_2_39" x1="318" y1="170.5" x2="318" y2="175.5" gradientUnits="userSpaceOnUse">
<stop stop-color="#38CCED"/>
<stop offset="1" stop-color="#38CCED" stop-opacity="0.4"/>
</linearGradient>
<linearGradient id="paint9_linear_2_39" x1="492" y1="181" x2="464" y2="181" gradientUnits="userSpaceOnUse">
<stop stop-color="#38CCED"/>
<stop offset="1" stop-color="#38CCED" stop-opacity="0.4"/>
</linearGradient>
</defs>
</svg>
