<svg width="652" height="376" viewBox="0 0 652 376" fill="none" xmlns="http://www.w3.org/2000/svg">
<rect width="652" height="376" fill="#F4FCFF"/>
<path fill-rule="evenodd" clip-rule="evenodd" d="M316.75 194C316.75 200.973 311.098 206.625 304.125 206.625C297.152 206.625 291.5 200.973 291.5 194C291.5 187.027 297.152 181.375 304.125 181.375C311.098 181.375 316.75 187.027 316.75 194ZM305.623 209.554C313.55 208.8 319.75 202.124 319.75 194C319.75 185.371 312.754 178.375 304.125 178.375C295.496 178.375 288.5 185.371 288.5 194C288.5 202.124 294.7 208.8 302.627 209.554C302.626 209.578 302.625 209.601 302.625 209.625V223.805C292.142 224.572 283.875 233.321 283.875 244C283.875 254.679 292.142 263.428 302.625 264.195V278.375C302.625 278.399 302.626 278.422 302.627 278.446C294.7 279.2 288.5 285.876 288.5 294C288.5 302.629 295.496 309.625 304.125 309.625C312.754 309.625 319.75 302.629 319.75 294C319.75 285.876 313.55 279.2 305.623 278.446C305.624 278.422 305.625 278.399 305.625 278.375V264.195C312.296 263.707 318.069 259.987 321.386 254.594L336.778 264.086C335.697 267.033 335.491 270.332 336.385 273.589C338.669 281.911 347.267 286.805 355.589 284.521C363.91 282.237 368.805 273.64 366.521 265.318C364.237 256.996 355.64 252.102 347.318 254.386C343.3 255.488 340.081 258.063 338.083 261.367L322.767 251.921C323.802 249.488 324.375 246.811 324.375 244C324.375 241.206 323.809 238.544 322.786 236.123C323.046 236.138 323.315 236.086 323.564 235.958L338.51 228.232C340.54 231.197 343.597 233.479 347.339 234.486C355.672 236.727 364.244 231.789 366.486 223.456C368.727 215.123 363.789 206.55 355.456 204.309C347.123 202.067 338.55 207.005 336.309 215.339C335.354 218.887 335.701 222.478 337.058 225.606L322.186 233.292C321.949 233.415 321.759 233.592 321.622 233.8C318.348 228.195 312.457 224.305 305.625 223.805V209.625C305.625 209.601 305.624 209.578 305.623 209.554ZM304.125 306.625C311.098 306.625 316.75 300.973 316.75 294C316.75 287.027 311.098 281.375 304.125 281.375C297.152 281.375 291.5 287.027 291.5 294C291.5 300.973 297.152 306.625 304.125 306.625ZM354.677 207.206C361.41 209.017 365.4 215.943 363.589 222.677C361.778 229.41 354.851 233.4 348.118 231.589C341.385 229.778 337.394 222.851 339.206 216.118C341.017 209.385 347.943 205.394 354.677 207.206ZM354.795 281.628C361.519 279.783 365.473 272.836 363.628 266.112C361.783 259.388 354.836 255.433 348.112 257.279C341.388 259.124 337.433 266.071 339.278 272.795C341.124 279.519 348.071 283.474 354.795 281.628ZM286.875 244C286.875 234.473 294.598 226.75 304.125 226.75C313.652 226.75 321.375 234.473 321.375 244C321.375 253.527 313.652 261.25 304.125 261.25C294.598 261.25 286.875 253.527 286.875 244Z" fill="#040531"/>
<path d="M305.623 209.554L305.529 208.559L304.58 208.649L304.624 209.601L305.623 209.554ZM302.627 209.554L303.626 209.601L303.67 208.649L302.721 208.559L302.627 209.554ZM302.625 223.805L302.698 224.802L303.625 224.734V223.805H302.625ZM302.625 264.195H303.625V263.266L302.698 263.198L302.625 264.195ZM302.627 278.446L302.721 279.441L303.67 279.351L303.626 278.399L302.627 278.446ZM305.623 278.446L304.624 278.399L304.58 279.351L305.529 279.441L305.623 278.446ZM305.625 264.195L305.552 263.198L304.625 263.266V264.195H305.625ZM321.386 254.594L321.911 253.743L321.059 253.217L320.534 254.07L321.386 254.594ZM336.778 264.086L337.716 264.431L337.998 263.664L337.303 263.235L336.778 264.086ZM336.385 273.589L337.35 273.324L336.385 273.589ZM355.589 284.521L355.324 283.557L355.589 284.521ZM347.318 254.386L347.053 253.421L347.318 254.386ZM338.083 261.367L337.558 262.218L338.417 262.748L338.939 261.884L338.083 261.367ZM322.767 251.921L321.847 251.53L321.51 252.321L322.242 252.772L322.767 251.921ZM322.786 236.123L322.846 235.124L321.237 235.027L321.865 236.512L322.786 236.123ZM323.564 235.958L323.105 235.069H323.105L323.564 235.958ZM338.51 228.232L339.335 227.667L338.835 226.938L338.051 227.344L338.51 228.232ZM347.339 234.486L347.079 235.452L347.339 234.486ZM366.486 223.456L365.52 223.196L366.486 223.456ZM355.456 204.309L355.716 203.343L355.456 204.309ZM336.309 215.339L337.274 215.598L336.309 215.339ZM337.058 225.606L337.517 226.494L338.347 226.065L337.975 225.208L337.058 225.606ZM322.186 233.292L322.645 234.181H322.645L322.186 233.292ZM321.622 233.8L320.759 234.304L321.572 235.696L322.458 234.349L321.622 233.8ZM305.625 223.805H304.625V224.734L305.552 224.802L305.625 223.805ZM354.677 207.206L354.936 206.24L354.677 207.206ZM348.118 231.589L347.858 232.555L348.118 231.589ZM339.206 216.118L340.171 216.378L339.206 216.118ZM363.628 266.112L364.592 265.847L363.628 266.112ZM354.795 281.628L354.53 280.664L354.795 281.628ZM348.112 257.279L348.376 258.243L348.112 257.279ZM304.125 207.625C311.65 207.625 317.75 201.525 317.75 194H315.75C315.75 200.42 310.545 205.625 304.125 205.625V207.625ZM290.5 194C290.5 201.525 296.6 207.625 304.125 207.625V205.625C297.705 205.625 292.5 200.42 292.5 194H290.5ZM304.125 180.375C296.6 180.375 290.5 186.475 290.5 194H292.5C292.5 187.58 297.705 182.375 304.125 182.375V180.375ZM317.75 194C317.75 186.475 311.65 180.375 304.125 180.375V182.375C310.545 182.375 315.75 187.58 315.75 194H317.75ZM318.75 194C318.75 201.604 312.947 207.853 305.529 208.559L305.718 210.55C314.153 209.747 320.75 202.645 320.75 194H318.75ZM304.125 179.375C312.202 179.375 318.75 185.923 318.75 194H320.75C320.75 184.818 313.307 177.375 304.125 177.375V179.375ZM289.5 194C289.5 185.923 296.048 179.375 304.125 179.375V177.375C294.943 177.375 287.5 184.818 287.5 194H289.5ZM302.721 208.559C295.303 207.853 289.5 201.604 289.5 194H287.5C287.5 202.645 294.097 209.747 302.532 210.55L302.721 208.559ZM303.625 209.625C303.625 209.617 303.625 209.609 303.626 209.601L301.628 209.508C301.626 209.546 301.625 209.585 301.625 209.625H303.625ZM303.625 223.805V209.625H301.625V223.805H303.625ZM284.875 244C284.875 233.849 292.733 225.532 302.698 224.802L302.552 222.807C291.55 223.613 282.875 232.793 282.875 244H284.875ZM302.698 263.198C292.733 262.468 284.875 254.151 284.875 244H282.875C282.875 255.207 291.55 264.387 302.552 265.193L302.698 263.198ZM301.625 264.195V278.375H303.625V264.195H301.625ZM301.625 278.375C301.625 278.414 301.626 278.453 301.628 278.492L303.626 278.399C303.625 278.391 303.625 278.383 303.625 278.375H301.625ZM302.532 277.45C294.097 278.253 287.5 285.355 287.5 294H289.5C289.5 286.396 295.303 280.147 302.721 279.441L302.532 277.45ZM287.5 294C287.5 303.182 294.943 310.625 304.125 310.625V308.625C296.048 308.625 289.5 302.077 289.5 294H287.5ZM304.125 310.625C313.307 310.625 320.75 303.182 320.75 294H318.75C318.75 302.077 312.202 308.625 304.125 308.625V310.625ZM320.75 294C320.75 285.355 314.153 278.253 305.718 277.45L305.529 279.441C312.947 280.147 318.75 286.396 318.75 294H320.75ZM306.622 278.492C306.624 278.453 306.625 278.414 306.625 278.375H304.625C304.625 278.383 304.625 278.391 304.624 278.399L306.622 278.492ZM306.625 278.375V264.195H304.625V278.375H306.625ZM320.534 254.07C317.38 259.199 311.891 262.734 305.552 263.198L305.698 265.193C312.701 264.68 318.759 260.775 322.238 255.118L320.534 254.07ZM320.861 255.445L336.253 264.938L337.303 263.235L321.911 253.743L320.861 255.445ZM335.839 263.742C334.689 266.877 334.47 270.389 335.421 273.854L337.35 273.324C336.513 270.274 336.705 267.188 337.716 264.431L335.839 263.742ZM335.421 273.854C337.851 282.708 346.999 287.916 355.853 285.486L355.324 283.557C347.535 285.695 339.487 281.113 337.35 273.324L335.421 273.854ZM355.853 285.486C364.708 283.056 369.915 273.908 367.485 265.053L365.557 265.583C367.694 273.372 363.113 281.419 355.324 283.557L355.853 285.486ZM367.485 265.053C365.055 256.199 355.907 250.991 347.053 253.421L347.582 255.35C355.372 253.212 363.419 257.794 365.557 265.583L367.485 265.053ZM347.053 253.421C342.779 254.594 339.353 257.335 337.228 260.85L338.939 261.884C340.81 258.79 343.821 256.382 347.582 255.35L347.053 253.421ZM338.608 260.516L323.292 251.07L322.242 252.772L337.558 262.218L338.608 260.516ZM323.375 244C323.375 246.674 322.83 249.218 321.847 251.53L323.687 252.313C324.774 249.758 325.375 246.948 325.375 244H323.375ZM321.865 236.512C322.837 238.812 323.375 241.342 323.375 244H325.375C325.375 241.07 324.781 238.276 323.707 235.733L321.865 236.512ZM323.105 235.069C323.02 235.113 322.932 235.13 322.846 235.124L322.725 237.121C323.161 237.147 323.609 237.06 324.023 236.846L323.105 235.069ZM338.051 227.344L323.105 235.069L324.023 236.846L338.969 229.121L338.051 227.344ZM347.598 233.52C344.096 232.578 341.235 230.442 339.335 227.667L337.685 228.797C339.844 231.951 343.099 234.381 347.079 235.452L347.598 233.52ZM365.52 223.196C363.422 230.996 355.398 235.618 347.598 233.52L347.079 235.452C355.946 237.837 365.067 232.582 367.452 223.716L365.52 223.196ZM355.196 205.274C362.996 207.372 367.618 215.396 365.52 223.196L367.452 223.716C369.837 214.849 364.582 205.728 355.716 203.343L355.196 205.274ZM337.274 215.598C339.372 207.798 347.396 203.176 355.196 205.274L355.716 203.343C346.849 200.958 337.728 206.212 335.343 215.079L337.274 215.598ZM337.975 225.208C336.706 222.28 336.381 218.92 337.274 215.598L335.343 215.079C334.328 218.853 334.697 222.676 336.141 226.004L337.975 225.208ZM322.645 234.181L337.517 226.494L336.599 224.717L321.727 232.404L322.645 234.181ZM322.458 234.349C322.503 234.281 322.565 234.222 322.645 234.181L321.727 232.404C321.334 232.607 321.015 232.903 320.787 233.25L322.458 234.349ZM305.552 224.802C312.044 225.277 317.644 228.974 320.759 234.304L322.486 233.295C319.051 227.416 312.87 223.333 305.698 222.807L305.552 224.802ZM304.625 209.625V223.805H306.625V209.625H304.625ZM304.624 209.601C304.625 209.609 304.625 209.617 304.625 209.625H306.625C306.625 209.585 306.624 209.546 306.622 209.508L304.624 209.601ZM315.75 294C315.75 300.42 310.545 305.625 304.125 305.625V307.625C311.65 307.625 317.75 301.525 317.75 294H315.75ZM304.125 282.375C310.545 282.375 315.75 287.58 315.75 294H317.75C317.75 286.475 311.65 280.375 304.125 280.375V282.375ZM292.5 294C292.5 287.58 297.705 282.375 304.125 282.375V280.375C296.6 280.375 290.5 286.475 290.5 294H292.5ZM304.125 305.625C297.705 305.625 292.5 300.42 292.5 294H290.5C290.5 301.525 296.6 307.625 304.125 307.625V305.625ZM364.555 222.936C366.509 215.67 362.203 208.194 354.936 206.24L354.417 208.171C360.617 209.839 364.291 216.217 362.623 222.417L364.555 222.936ZM347.858 232.555C355.125 234.509 362.6 230.203 364.555 222.936L362.623 222.417C360.956 228.617 354.578 232.291 348.378 230.623L347.858 232.555ZM338.24 215.858C336.285 223.125 340.592 230.6 347.858 232.555L348.378 230.623C342.178 228.956 338.504 222.578 340.171 216.378L338.24 215.858ZM354.936 206.24C347.67 204.285 340.195 208.592 338.24 215.858L340.171 216.378C341.839 210.178 348.217 206.504 354.417 208.171L354.936 206.24ZM362.664 266.377C364.363 272.568 360.721 278.965 354.53 280.664L355.059 282.593C362.316 280.601 366.584 273.104 364.592 265.847L362.664 266.377ZM348.376 258.243C354.568 256.544 360.964 260.185 362.664 266.377L364.592 265.847C362.601 258.591 355.104 254.323 347.847 256.314L348.376 258.243ZM340.243 272.53C338.544 266.339 342.185 259.942 348.376 258.243L347.847 256.314C340.591 258.306 336.322 265.803 338.314 273.06L340.243 272.53ZM354.53 280.664C348.339 282.363 341.942 278.722 340.243 272.53L338.314 273.06C340.306 280.316 347.803 284.584 355.059 282.593L354.53 280.664ZM304.125 225.75C294.046 225.75 285.875 233.921 285.875 244H287.875C287.875 235.025 295.15 227.75 304.125 227.75V225.75ZM322.375 244C322.375 233.921 314.204 225.75 304.125 225.75V227.75C313.1 227.75 320.375 235.025 320.375 244H322.375ZM304.125 262.25C314.204 262.25 322.375 254.079 322.375 244H320.375C320.375 252.975 313.1 260.25 304.125 260.25V262.25ZM285.875 244C285.875 254.079 294.046 262.25 304.125 262.25V260.25C295.15 260.25 287.875 252.975 287.875 244H285.875Z" fill="black"/>
<path fill-rule="evenodd" clip-rule="evenodd" d="M257.25 244C257.25 227.893 268.99 215.875 282.25 215.875L282.25 203.375C260.992 203.375 244.75 222.137 244.75 244C244.75 265.863 260.992 284.625 282.25 284.625L282.25 272.125C268.99 272.125 257.25 260.107 257.25 244Z" fill="url(#paint0_linear_2_2)"/>
<path fill-rule="evenodd" clip-rule="evenodd" d="M308.429 63.3234C299.174 59.2656 288.382 63.4788 284.324 72.734C283.109 75.5047 282.636 78.409 282.816 81.2289C282.868 82.0557 282.241 82.7686 281.414 82.8213C280.587 82.874 279.875 82.2465 279.822 81.4197C279.612 78.1329 280.165 74.7491 281.576 71.5294C286.299 60.7568 298.861 55.8527 309.634 60.5758C320.406 65.2989 325.31 77.8606 320.587 88.6332C315.864 99.4058 303.302 104.31 292.53 99.5867C288.979 98.0301 286.063 95.6189 283.921 92.7C283.43 92.0322 283.574 91.0934 284.242 90.6032C284.91 90.1131 285.849 90.2571 286.339 90.9249C288.178 93.43 290.68 95.4999 293.734 96.8392C302.99 100.897 313.782 96.6837 317.84 87.4286C321.897 78.1734 317.684 67.3812 308.429 63.3234Z" fill="#040531"/>
<path fill-rule="evenodd" clip-rule="evenodd" d="M282.995 97.4093C282.167 97.4416 281.469 96.7968 281.437 95.969L281.222 90.4636C281.165 89.007 282.361 87.8108 283.818 87.8678L289.323 88.0831C290.151 88.1155 290.796 88.8128 290.763 89.6406C290.731 90.4684 290.034 91.1132 289.206 91.0808L284.241 90.8866L284.435 95.8518C284.467 96.6796 283.822 97.3769 282.995 97.4093Z" fill="#040531"/>
<path fill-rule="evenodd" clip-rule="evenodd" d="M301 89C305.971 89 310 84.9706 310 80C310 75.0294 305.971 71 301 71C296.029 71 292 75.0294 292 80C292 84.9706 296.029 89 301 89ZM301 92C307.627 92 313 86.6274 313 80C313 73.3726 307.627 68 301 68C294.373 68 289 73.3726 289 80C289 86.6274 294.373 92 301 92Z" fill="#040531"/>
<rect x="305" y="76" width="8" height="8" transform="rotate(90 305 76)" fill="url(#paint1_linear_2_2)"/>
<path fill-rule="evenodd" clip-rule="evenodd" d="M573 169V197H601V169H573ZM572 166C570.895 166 570 166.895 570 168V198C570 199.105 570.895 200 572 200H602C603.105 200 604 199.105 604 198V168C604 166.895 603.105 166 602 166H572Z" fill="#040531"/>
<path fill-rule="evenodd" clip-rule="evenodd" d="M589 208L589 204L608.193 204L608.193 185.193L612.193 185.193L612.193 208L589 208Z" fill="url(#paint2_linear_2_2)"/>
<path fill-rule="evenodd" clip-rule="evenodd" d="M573 297V325H601V297H573ZM572 294C570.895 294 570 294.895 570 296V326C570 327.105 570.895 328 572 328H602C603.105 328 604 327.105 604 326V296C604 294.895 603.105 294 602 294H572Z" fill="#040531"/>
<path fill-rule="evenodd" clip-rule="evenodd" d="M589 336L589 332L608.193 332L608.193 313.193L612.193 313.193L612.193 336L589 336Z" fill="url(#paint3_linear_2_2)"/>
<path fill-rule="evenodd" clip-rule="evenodd" d="M307.053 146.195L307.053 124.854C307.053 124.382 307.477 124 308 124C308.523 124 308.947 124.382 308.947 124.854L308.947 146.195C308.947 146.667 308.523 147.049 308 147.049C307.477 147.049 307.053 146.667 307.053 146.195Z" fill="#040531"/>
<path fill-rule="evenodd" clip-rule="evenodd" d="M313.723 142.461C314.092 142.795 314.092 143.335 313.723 143.669L309.563 147.417C308.7 148.194 307.3 148.194 306.437 147.417L302.277 143.669C301.908 143.335 301.908 142.795 302.277 142.461C302.647 142.128 303.247 142.128 303.617 142.461L307.777 146.209C307.9 146.32 308.1 146.32 308.223 146.209L312.383 142.461C312.753 142.128 313.353 142.128 313.723 142.461Z" fill="#040531"/>
<path fill-rule="evenodd" clip-rule="evenodd" d="M293.947 125.133L293.947 146.475C293.947 146.946 293.523 147.328 293 147.328C292.477 147.328 292.053 146.946 292.053 146.475L292.053 125.133C292.053 124.662 292.477 124.28 293 124.28C293.523 124.28 293.947 124.662 293.947 125.133Z" fill="#040531"/>
<path fill-rule="evenodd" clip-rule="evenodd" d="M287.277 128.867C286.908 128.534 286.908 127.993 287.277 127.66L291.437 123.912C292.3 123.134 293.7 123.134 294.563 123.912L298.723 127.66C299.092 127.993 299.092 128.534 298.723 128.867C298.353 129.2 297.753 129.2 297.383 128.867L293.223 125.119C293.1 125.008 292.9 125.008 292.777 125.119L288.617 128.867C288.247 129.2 287.647 129.2 287.277 128.867Z" fill="#040531"/>
<rect width="8" height="8" transform="matrix(8.74228e-08 1 1 -8.74228e-08 297 132)" fill="url(#paint4_linear_2_2)"/>
<path fill-rule="evenodd" clip-rule="evenodd" d="M83.195 207.947L61.8537 207.947C61.3822 207.947 61 207.523 61 207C61 206.477 61.3822 206.053 61.8537 206.053L83.195 206.053C83.6665 206.053 84.0487 206.477 84.0487 207C84.0487 207.523 83.6665 207.947 83.195 207.947Z" fill="#040531"/>
<path fill-rule="evenodd" clip-rule="evenodd" d="M79.4614 201.277C79.7947 200.908 80.3352 200.908 80.6686 201.277L84.4166 205.437C85.1945 206.3 85.1945 207.7 84.4166 208.563L80.6686 212.723C80.3352 213.092 79.7947 213.092 79.4614 212.723C79.128 212.353 79.128 211.753 79.4614 211.383L83.2094 207.223C83.3205 207.1 83.3205 206.9 83.2094 206.777L79.4614 202.617C79.128 202.247 79.128 201.647 79.4614 201.277Z" fill="#040531"/>
<path fill-rule="evenodd" clip-rule="evenodd" d="M62.1334 221.053L83.4748 221.053C83.9462 221.053 84.3284 221.477 84.3284 222C84.3284 222.523 83.9462 222.947 83.4748 222.947L62.1334 222.947C61.6619 222.947 61.2797 222.523 61.2797 222C61.2797 221.477 61.6619 221.053 62.1334 221.053Z" fill="#040531"/>
<path fill-rule="evenodd" clip-rule="evenodd" d="M65.8671 227.723C65.5337 228.092 64.9932 228.092 64.6598 227.723L60.9118 223.563C60.1339 222.7 60.1339 221.3 60.9118 220.437L64.6598 216.277C64.9932 215.908 65.5337 215.908 65.8671 216.277C66.2004 216.647 66.2004 217.247 65.8671 217.617L62.1191 221.777C62.0079 221.9 62.0079 222.1 62.1191 222.223L65.8671 226.383C66.2004 226.753 66.2004 227.353 65.8671 227.723Z" fill="#040531"/>
<rect width="8" height="8" transform="matrix(1 -8.74228e-08 -8.74228e-08 -1 69 218)" fill="url(#paint5_linear_2_2)"/>
<path fill-rule="evenodd" clip-rule="evenodd" d="M545.195 304.947L523.854 304.947C523.382 304.947 523 304.523 523 304C523 303.477 523.382 303.053 523.854 303.053L545.195 303.053C545.667 303.053 546.049 303.477 546.049 304C546.049 304.523 545.667 304.947 545.195 304.947Z" fill="#040531"/>
<path fill-rule="evenodd" clip-rule="evenodd" d="M541.461 298.277C541.795 297.908 542.335 297.908 542.669 298.277L546.417 302.437C547.194 303.3 547.194 304.7 546.417 305.563L542.669 309.723C542.335 310.092 541.795 310.092 541.461 309.723C541.128 309.353 541.128 308.753 541.461 308.383L545.209 304.223C545.32 304.1 545.32 303.9 545.209 303.777L541.461 299.617C541.128 299.247 541.128 298.647 541.461 298.277Z" fill="#040531"/>
<path fill-rule="evenodd" clip-rule="evenodd" d="M524.133 318.053L545.475 318.053C545.946 318.053 546.328 318.477 546.328 319C546.328 319.523 545.946 319.947 545.475 319.947L524.133 319.947C523.662 319.947 523.28 319.523 523.28 319C523.28 318.477 523.662 318.053 524.133 318.053Z" fill="#040531"/>
<path fill-rule="evenodd" clip-rule="evenodd" d="M527.867 324.723C527.534 325.092 526.993 325.092 526.66 324.723L522.912 320.563C522.134 319.7 522.134 318.3 522.912 317.437L526.66 313.277C526.993 312.908 527.534 312.908 527.867 313.277C528.2 313.647 528.2 314.247 527.867 314.617L524.119 318.777C524.008 318.9 524.008 319.1 524.119 319.223L527.867 323.383C528.2 323.753 528.2 324.353 527.867 324.723Z" fill="#040531"/>
<rect width="8" height="8" transform="matrix(1 -8.74228e-08 -8.74228e-08 -1 531 315)" fill="url(#paint6_linear_2_2)"/>
<path fill-rule="evenodd" clip-rule="evenodd" d="M545.195 180.947L523.854 180.947C523.382 180.947 523 180.523 523 180C523 179.477 523.382 179.053 523.854 179.053L545.195 179.053C545.667 179.053 546.049 179.477 546.049 180C546.049 180.523 545.667 180.947 545.195 180.947Z" fill="#040531"/>
<path fill-rule="evenodd" clip-rule="evenodd" d="M541.461 174.277C541.795 173.908 542.335 173.908 542.669 174.277L546.417 178.437C547.194 179.3 547.194 180.7 546.417 181.563L542.669 185.723C542.335 186.092 541.795 186.092 541.461 185.723C541.128 185.353 541.128 184.753 541.461 184.383L545.209 180.223C545.32 180.1 545.32 179.9 545.209 179.777L541.461 175.617C541.128 175.247 541.128 174.647 541.461 174.277Z" fill="#040531"/>
<path fill-rule="evenodd" clip-rule="evenodd" d="M524.133 194.053L545.475 194.053C545.946 194.053 546.328 194.477 546.328 195C546.328 195.523 545.946 195.947 545.475 195.947L524.133 195.947C523.662 195.947 523.28 195.523 523.28 195C523.28 194.477 523.662 194.053 524.133 194.053Z" fill="#040531"/>
<path fill-rule="evenodd" clip-rule="evenodd" d="M527.867 200.723C527.534 201.092 526.993 201.092 526.66 200.723L522.912 196.563C522.134 195.7 522.134 194.3 522.912 193.437L526.66 189.277C526.993 188.908 527.534 188.908 527.867 189.277C528.2 189.647 528.2 190.247 527.867 190.617L524.119 194.777C524.008 194.9 524.008 195.1 524.119 195.223L527.867 199.383C528.2 199.753 528.2 200.353 527.867 200.723Z" fill="#040531"/>
<rect width="8" height="8" transform="matrix(1 -8.74228e-08 -8.74228e-08 -1 531 191)" fill="url(#paint7_linear_2_2)"/>
<path d="M539.729 236.92H538.259V247H539.729V243.283C539.729 242.135 540.52 241.512 541.465 241.512C542.445 241.512 543.026 242.142 543.026 243.269V247H544.496V242.786C544.496 241.218 543.369 240.119 541.773 240.119C541.094 240.119 540.268 240.322 539.729 241.092V236.92ZM548.192 240.294H546.722V247H548.192V240.294ZM547.45 236.941C546.869 236.941 546.428 237.396 546.428 237.977C546.428 238.558 546.869 238.999 547.45 238.999C548.031 238.999 548.486 238.558 548.486 237.977C548.486 237.396 548.031 236.941 547.45 236.941ZM555.676 240.833C554.983 240.385 554.01 240.126 552.96 240.126C551.252 240.126 550.188 240.945 550.188 242.275C550.188 243.353 550.979 244.039 552.463 244.242L553.163 244.333C553.961 244.445 554.325 244.697 554.325 245.075C554.325 245.579 553.8 245.894 552.799 245.894C551.707 245.894 551.07 245.579 550.587 245.208L549.908 246.307C550.888 247.035 552.092 247.168 552.785 247.168C554.717 247.168 555.837 246.265 555.837 244.977C555.837 243.829 554.969 243.206 553.506 242.996L552.813 242.891C552.197 242.8 551.707 242.667 551.707 242.198C551.707 241.722 552.176 241.4 552.974 241.4C553.807 241.4 554.64 241.722 555.046 241.974L555.676 240.833ZM562.135 240.294H559.566V238.264H558.096V240.294H556.759V241.624H558.096V244.571C558.096 246.356 558.985 247.175 560.504 247.175C561.344 247.175 562.023 246.874 562.562 246.51L561.981 245.341C561.582 245.593 561.085 245.796 560.63 245.796C560.042 245.796 559.566 245.446 559.566 244.543V241.624H562.135V240.294ZM567.043 240.119C564.971 240.119 563.438 241.638 563.438 243.647C563.438 245.656 564.971 247.175 567.043 247.175C569.115 247.175 570.655 245.656 570.655 243.647C570.655 241.638 569.115 240.119 567.043 240.119ZM567.043 241.498C568.24 241.498 569.15 242.38 569.15 243.647C569.15 244.914 568.24 245.796 567.043 245.796C565.846 245.796 564.943 244.914 564.943 243.647C564.943 242.38 565.846 241.498 567.043 241.498ZM575.861 240.119C575.042 240.119 574.356 240.413 573.915 241.05V240.294H572.466V247H573.929V243.311C573.929 242.17 574.594 241.512 575.525 241.512C575.882 241.512 576.33 241.596 576.638 241.757L576.988 240.308C576.652 240.175 576.309 240.119 575.861 240.119ZM579.952 240.294H578.482V247H579.952V240.294ZM579.21 236.941C578.629 236.941 578.188 237.396 578.188 237.977C578.188 238.558 578.629 238.999 579.21 238.999C579.791 238.999 580.246 238.558 580.246 237.977C580.246 237.396 579.791 236.941 579.21 236.941ZM585.287 240.119C583.152 240.119 581.759 241.638 581.759 243.647C581.759 245.656 583.152 247.175 585.287 247.175C586.288 247.175 587.184 246.811 587.793 246.104L586.89 245.096C586.463 245.495 585.889 245.796 585.245 245.796C584.118 245.796 583.264 244.914 583.264 243.647C583.264 242.38 584.118 241.498 585.245 241.498C585.889 241.498 586.386 241.75 586.855 242.191L587.793 241.19C587.198 240.483 586.288 240.119 585.287 240.119ZM595.736 240.294H594.273V241.106C593.811 240.511 593.118 240.119 592.166 240.119C590.29 240.119 588.813 241.596 588.813 243.647C588.813 245.698 590.29 247.175 592.166 247.175C593.118 247.175 593.811 246.79 594.273 246.195V247H595.736V240.294ZM592.341 241.498C593.552 241.498 594.364 242.422 594.364 243.647C594.364 244.872 593.552 245.796 592.341 245.796C591.081 245.796 590.318 244.823 590.318 243.647C590.318 242.471 591.081 241.498 592.341 241.498ZM599.503 236.92H598.033V247H599.503V236.92ZM609.129 240.119C608.177 240.119 607.491 240.504 607.029 241.092V236.92H605.566V247H607.029V246.202C607.491 246.79 608.177 247.175 609.129 247.175C611.005 247.175 612.482 245.698 612.482 243.647C612.482 241.596 611.005 240.119 609.129 240.119ZM608.954 241.498C610.214 241.498 610.977 242.471 610.977 243.647C610.977 244.823 610.214 245.796 608.954 245.796C607.743 245.796 606.931 244.872 606.931 243.647C606.931 242.422 607.743 241.498 608.954 241.498ZM620.729 240.294H619.266V241.106C618.804 240.511 618.111 240.119 617.159 240.119C615.283 240.119 613.806 241.596 613.806 243.647C613.806 245.698 615.283 247.175 617.159 247.175C618.111 247.175 618.804 246.79 619.266 246.195V247H620.729V240.294ZM617.334 241.498C618.545 241.498 619.357 242.422 619.357 243.647C619.357 244.872 618.545 245.796 617.334 245.796C616.074 245.796 615.311 244.823 615.311 243.647C615.311 242.471 616.074 241.498 617.334 241.498ZM627.596 240.294H625.027V238.264H623.557V240.294H622.22V241.624H623.557V244.571C623.557 246.356 624.446 247.175 625.965 247.175C626.805 247.175 627.484 246.874 628.023 246.51L627.442 245.341C627.043 245.593 626.546 245.796 626.091 245.796C625.503 245.796 625.027 245.446 625.027 244.543V241.624H627.596V240.294ZM632.427 240.119C630.292 240.119 628.899 241.638 628.899 243.647C628.899 245.656 630.292 247.175 632.427 247.175C633.428 247.175 634.324 246.811 634.933 246.104L634.03 245.096C633.603 245.495 633.029 245.796 632.385 245.796C631.258 245.796 630.404 244.914 630.404 243.647C630.404 242.38 631.258 241.498 632.385 241.498C633.029 241.498 633.526 241.75 633.995 242.191L634.933 241.19C634.338 240.483 633.428 240.119 632.427 240.119ZM638.044 236.92H636.574V247H638.044V243.283C638.044 242.135 638.835 241.512 639.78 241.512C640.76 241.512 641.341 242.142 641.341 243.269V247H642.811V242.786C642.811 241.218 641.684 240.119 640.088 240.119C639.409 240.119 638.583 240.322 638.044 241.092V236.92ZM581.456 258.294H579.993V259.106C579.531 258.511 578.838 258.119 577.886 258.119C576.01 258.119 574.533 259.596 574.533 261.647C574.533 263.698 576.01 265.175 577.886 265.175C578.838 265.175 579.531 264.79 579.993 264.195V265H581.456V258.294ZM578.061 259.498C579.272 259.498 580.084 260.422 580.084 261.647C580.084 262.872 579.272 263.796 578.061 263.796C576.801 263.796 576.038 262.823 576.038 261.647C576.038 260.471 576.801 259.498 578.061 259.498ZM587.315 258.119C586.363 258.119 585.677 258.504 585.215 259.092V258.294H583.752V267.8H585.215V264.202C585.677 264.79 586.363 265.175 587.315 265.175C589.191 265.175 590.668 263.698 590.668 261.647C590.668 259.596 589.191 258.119 587.315 258.119ZM587.14 259.498C588.4 259.498 589.163 260.471 589.163 261.647C589.163 262.823 588.4 263.796 587.14 263.796C585.929 263.796 585.117 262.872 585.117 261.647C585.117 260.422 585.929 259.498 587.14 259.498ZM596.038 258.119C595.086 258.119 594.4 258.504 593.938 259.092V258.294H592.475V267.8H593.938V264.202C594.4 264.79 595.086 265.175 596.038 265.175C597.914 265.175 599.391 263.698 599.391 261.647C599.391 259.596 597.914 258.119 596.038 258.119ZM595.863 259.498C597.123 259.498 597.886 260.471 597.886 261.647C597.886 262.823 597.123 263.796 595.863 263.796C594.652 263.796 593.84 262.872 593.84 261.647C593.84 260.422 594.652 259.498 595.863 259.498ZM606.392 258.833C605.699 258.385 604.726 258.126 603.676 258.126C601.968 258.126 600.904 258.945 600.904 260.275C600.904 261.353 601.695 262.039 603.179 262.242L603.879 262.333C604.677 262.445 605.041 262.697 605.041 263.075C605.041 263.579 604.516 263.894 603.515 263.894C602.423 263.894 601.786 263.579 601.303 263.208L600.624 264.307C601.604 265.035 602.808 265.168 603.501 265.168C605.433 265.168 606.553 264.265 606.553 262.977C606.553 261.829 605.685 261.206 604.222 260.996L603.529 260.891C602.913 260.8 602.423 260.667 602.423 260.198C602.423 259.722 602.892 259.4 603.69 259.4C604.523 259.4 605.356 259.722 605.762 259.974L606.392 258.833Z" fill="#040531"/>
<path d="M273.954 23.119C273.135 23.119 272.449 23.413 272.008 24.05V23.294H270.559V30H272.022V26.311C272.022 25.17 272.687 24.512 273.618 24.512C273.975 24.512 274.423 24.596 274.731 24.757L275.081 23.308C274.745 23.175 274.402 23.119 273.954 23.119ZM279.157 23.119C277.183 23.119 275.818 24.547 275.818 26.647C275.818 28.775 277.239 30.175 279.248 30.175C280.263 30.175 281.187 29.93 282.006 29.23L281.278 28.187C280.725 28.628 280.011 28.894 279.339 28.894C278.387 28.894 277.54 28.39 277.344 27.186H282.3C282.314 27.018 282.328 26.829 282.328 26.64C282.321 24.547 281.033 23.119 279.157 23.119ZM279.129 24.421C280.06 24.421 280.669 25.03 280.83 26.073H277.351C277.505 25.093 278.086 24.421 279.129 24.421ZM290.575 23.294H289.112V24.106C288.65 23.511 287.957 23.119 287.005 23.119C285.129 23.119 283.652 24.596 283.652 26.647C283.652 28.698 285.129 30.175 287.005 30.175C287.957 30.175 288.65 29.79 289.112 29.195V30H290.575V23.294ZM287.18 24.498C288.391 24.498 289.203 25.422 289.203 26.647C289.203 27.872 288.391 28.796 287.18 28.796C285.92 28.796 285.157 27.823 285.157 26.647C285.157 25.471 285.92 24.498 287.18 24.498ZM294.342 19.92H292.872V30H294.342V19.92ZM300.474 25.604H296.414V26.934H300.474V25.604ZM307.122 23.294H304.553V21.264H303.083V23.294H301.746V24.624H303.083V27.571C303.083 29.356 303.972 30.175 305.491 30.175C306.331 30.175 307.01 29.874 307.549 29.51L306.968 28.341C306.569 28.593 306.072 28.796 305.617 28.796C305.029 28.796 304.553 28.446 304.553 27.543V24.624H307.122V23.294ZM310.379 23.294H308.909V30H310.379V23.294ZM309.637 19.941C309.056 19.941 308.615 20.396 308.615 20.977C308.615 21.558 309.056 21.999 309.637 21.999C310.218 21.999 310.673 21.558 310.673 20.977C310.673 20.396 310.218 19.941 309.637 19.941ZM320.95 23.119C320.117 23.119 319.081 23.357 318.5 24.316C318.038 23.574 317.205 23.119 316.183 23.119C315.497 23.119 314.664 23.322 314.125 24.113V23.294H312.669V30H314.139V26.283C314.139 25.135 314.93 24.512 315.875 24.512C316.855 24.512 317.436 25.142 317.436 26.269V30H318.906V26.283C318.906 25.135 319.697 24.512 320.642 24.512C321.622 24.512 322.203 25.142 322.203 26.269V30H323.673V25.786C323.673 24.218 322.546 23.119 320.95 23.119ZM328.759 23.119C326.785 23.119 325.42 24.547 325.42 26.647C325.42 28.775 326.841 30.175 328.85 30.175C329.865 30.175 330.789 29.93 331.608 29.23L330.88 28.187C330.327 28.628 329.613 28.894 328.941 28.894C327.989 28.894 327.142 28.39 326.946 27.186H331.902C331.916 27.018 331.93 26.829 331.93 26.64C331.923 24.547 330.635 23.119 328.759 23.119ZM328.731 24.421C329.662 24.421 330.271 25.03 330.432 26.073H326.953C327.107 25.093 327.688 24.421 328.731 24.421ZM244.506 41.833C243.813 41.385 242.84 41.126 241.79 41.126C240.082 41.126 239.018 41.945 239.018 43.275C239.018 44.353 239.809 45.039 241.293 45.242L241.993 45.333C242.791 45.445 243.155 45.697 243.155 46.075C243.155 46.579 242.63 46.894 241.629 46.894C240.537 46.894 239.9 46.579 239.417 46.208L238.738 47.307C239.718 48.035 240.922 48.168 241.615 48.168C243.547 48.168 244.667 47.265 244.667 45.977C244.667 44.829 243.799 44.206 242.336 43.996L241.643 43.891C241.027 43.8 240.537 43.667 240.537 43.198C240.537 42.722 241.006 42.4 241.804 42.4C242.637 42.4 243.47 42.722 243.876 42.974L244.506 41.833ZM250.965 41.294H248.396V39.264H246.926V41.294H245.589V42.624H246.926V45.571C246.926 47.356 247.815 48.175 249.334 48.175C250.174 48.175 250.853 47.874 251.392 47.51L250.811 46.341C250.412 46.593 249.915 46.796 249.46 46.796C248.872 46.796 248.396 46.446 248.396 45.543V42.624H250.965V41.294ZM256.147 41.119C255.328 41.119 254.642 41.413 254.201 42.05V41.294H252.752V48H254.215V44.311C254.215 43.17 254.88 42.512 255.811 42.512C256.168 42.512 256.616 42.596 256.924 42.757L257.274 41.308C256.938 41.175 256.595 41.119 256.147 41.119ZM261.35 41.119C259.376 41.119 258.011 42.547 258.011 44.647C258.011 46.775 259.432 48.175 261.441 48.175C262.456 48.175 263.38 47.93 264.199 47.23L263.471 46.187C262.918 46.628 262.204 46.894 261.532 46.894C260.58 46.894 259.733 46.39 259.537 45.186H264.493C264.507 45.018 264.521 44.829 264.521 44.64C264.514 42.547 263.226 41.119 261.35 41.119ZM261.322 42.421C262.253 42.421 262.862 43.03 263.023 44.073H259.544C259.698 43.093 260.279 42.421 261.322 42.421ZM272.768 41.294H271.305V42.106C270.843 41.511 270.15 41.119 269.198 41.119C267.322 41.119 265.845 42.596 265.845 44.647C265.845 46.698 267.322 48.175 269.198 48.175C270.15 48.175 270.843 47.79 271.305 47.195V48H272.768V41.294ZM269.373 42.498C270.584 42.498 271.396 43.422 271.396 44.647C271.396 45.872 270.584 46.796 269.373 46.796C268.113 46.796 267.35 45.823 267.35 44.647C267.35 43.471 268.113 42.498 269.373 42.498ZM283.345 41.119C282.512 41.119 281.476 41.357 280.895 42.316C280.433 41.574 279.6 41.119 278.578 41.119C277.892 41.119 277.059 41.322 276.52 42.113V41.294H275.064V48H276.534V44.283C276.534 43.135 277.325 42.512 278.27 42.512C279.25 42.512 279.831 43.142 279.831 44.269V48H281.301V44.283C281.301 43.135 282.092 42.512 283.037 42.512C284.017 42.512 284.598 43.142 284.598 44.269V48H286.068V43.786C286.068 42.218 284.941 41.119 283.345 41.119ZM295.635 41.119C294.683 41.119 293.997 41.504 293.535 42.092V41.294H292.072V50.8H293.535V47.202C293.997 47.79 294.683 48.175 295.635 48.175C297.511 48.175 298.988 46.698 298.988 44.647C298.988 42.596 297.511 41.119 295.635 41.119ZM295.46 42.498C296.72 42.498 297.483 43.471 297.483 44.647C297.483 45.823 296.72 46.796 295.46 46.796C294.249 46.796 293.437 45.872 293.437 44.647C293.437 43.422 294.249 42.498 295.46 42.498ZM304.189 41.119C303.37 41.119 302.684 41.413 302.243 42.05V41.294H300.794V48H302.257V44.311C302.257 43.17 302.922 42.512 303.853 42.512C304.21 42.512 304.658 42.596 304.966 42.757L305.316 41.308C304.98 41.175 304.637 41.119 304.189 41.119ZM309.659 41.119C307.587 41.119 306.054 42.638 306.054 44.647C306.054 46.656 307.587 48.175 309.659 48.175C311.731 48.175 313.271 46.656 313.271 44.647C313.271 42.638 311.731 41.119 309.659 41.119ZM309.659 42.498C310.856 42.498 311.766 43.38 311.766 44.647C311.766 45.914 310.856 46.796 309.659 46.796C308.462 46.796 307.559 45.914 307.559 44.647C307.559 43.38 308.462 42.498 309.659 42.498ZM318.127 41.119C315.992 41.119 314.599 42.638 314.599 44.647C314.599 46.656 315.992 48.175 318.127 48.175C319.128 48.175 320.024 47.811 320.633 47.104L319.73 46.096C319.303 46.495 318.729 46.796 318.085 46.796C316.958 46.796 316.104 45.914 316.104 44.647C316.104 43.38 316.958 42.498 318.085 42.498C318.729 42.498 319.226 42.75 319.695 43.191L320.633 42.19C320.038 41.483 319.128 41.119 318.127 41.119ZM324.992 41.119C323.018 41.119 321.653 42.547 321.653 44.647C321.653 46.775 323.074 48.175 325.083 48.175C326.098 48.175 327.022 47.93 327.841 47.23L327.113 46.187C326.56 46.628 325.846 46.894 325.174 46.894C324.222 46.894 323.375 46.39 323.179 45.186H328.135C328.149 45.018 328.163 44.829 328.163 44.64C328.156 42.547 326.868 41.119 324.992 41.119ZM324.964 42.421C325.895 42.421 326.504 43.03 326.665 44.073H323.186C323.34 43.093 323.921 42.421 324.964 42.421ZM335.164 41.833C334.471 41.385 333.498 41.126 332.448 41.126C330.74 41.126 329.676 41.945 329.676 43.275C329.676 44.353 330.467 45.039 331.951 45.242L332.651 45.333C333.449 45.445 333.813 45.697 333.813 46.075C333.813 46.579 333.288 46.894 332.287 46.894C331.195 46.894 330.558 46.579 330.075 46.208L329.396 47.307C330.376 48.035 331.58 48.168 332.273 48.168C334.205 48.168 335.325 47.265 335.325 45.977C335.325 44.829 334.457 44.206 332.994 43.996L332.301 43.891C331.685 43.8 331.195 43.667 331.195 43.198C331.195 42.722 331.664 42.4 332.462 42.4C333.295 42.4 334.128 42.722 334.534 42.974L335.164 41.833ZM342.246 41.833C341.553 41.385 340.58 41.126 339.53 41.126C337.822 41.126 336.758 41.945 336.758 43.275C336.758 44.353 337.549 45.039 339.033 45.242L339.733 45.333C340.531 45.445 340.895 45.697 340.895 46.075C340.895 46.579 340.37 46.894 339.369 46.894C338.277 46.894 337.64 46.579 337.157 46.208L336.478 47.307C337.458 48.035 338.662 48.168 339.355 48.168C341.287 48.168 342.407 47.265 342.407 45.977C342.407 44.829 341.539 44.206 340.076 43.996L339.383 43.891C338.767 43.8 338.277 43.667 338.277 43.198C338.277 42.722 338.746 42.4 339.544 42.4C340.377 42.4 341.21 42.722 341.616 42.974L342.246 41.833ZM345.604 41.294H344.134V48H345.604V41.294ZM344.862 37.941C344.281 37.941 343.84 38.396 343.84 38.977C343.84 39.558 344.281 39.999 344.862 39.999C345.443 39.999 345.898 39.558 345.898 38.977C345.898 38.396 345.443 37.941 344.862 37.941ZM351.408 41.119C350.722 41.119 349.889 41.322 349.35 42.113V41.294H347.894V48H349.364V44.283C349.364 43.135 350.155 42.512 351.1 42.512C352.08 42.512 352.661 43.142 352.661 44.269V48H354.131V43.786C354.131 42.218 353.004 41.119 351.408 41.119ZM358.982 41.119C357.449 41.119 355.874 42.407 355.874 44.577C355.874 46.747 357.449 48.035 358.982 48.035C359.955 48.035 360.711 47.699 361.215 47.055V47.594C361.215 48.84 360.459 49.596 359.087 49.596C358.268 49.596 357.491 49.33 356.812 48.917L356.28 50.156C356.987 50.66 358.086 50.933 359.087 50.933C361.327 50.933 362.685 49.638 362.685 47.531V41.294H361.215V42.099C360.711 41.462 359.955 41.119 358.982 41.119ZM359.36 42.498C360.543 42.498 361.341 43.401 361.341 44.577C361.341 45.753 360.543 46.656 359.36 46.656C358.121 46.656 357.379 45.704 357.379 44.577C357.379 43.443 358.121 42.498 359.36 42.498Z" fill="#040531"/>
<path d="M289.131 334H291.28L286.569 328.981L290.979 324.2H288.935L285.253 328.323H284.287V324.2H282.705V334H284.287V329.821H285.232L289.131 334ZM298.506 327.294H297.043V328.106C296.581 327.511 295.888 327.119 294.936 327.119C293.06 327.119 291.583 328.596 291.583 330.647C291.583 332.698 293.06 334.175 294.936 334.175C295.888 334.175 296.581 333.79 297.043 333.195V334H298.506V327.294ZM295.111 328.498C296.322 328.498 297.134 329.422 297.134 330.647C297.134 331.872 296.322 332.796 295.111 332.796C293.851 332.796 293.088 331.823 293.088 330.647C293.088 329.471 293.851 328.498 295.111 328.498ZM305.107 327.294H302.811V326.16C302.811 325.495 303.119 325.124 303.686 325.124C304.127 325.124 304.596 325.285 304.939 325.481L305.457 324.249C304.96 323.955 304.372 323.745 303.588 323.745C302.02 323.745 301.341 324.816 301.341 326.16V327.294H299.997V328.624H301.341V334H302.811V328.624H305.107V327.294ZM308.179 323.92H306.709V334H308.179V331.172H308.907L311.14 334H312.995L310.16 330.451L312.967 327.294H311.126L308.914 329.842H308.179V323.92ZM320.477 327.294H319.014V328.106C318.552 327.511 317.859 327.119 316.907 327.119C315.031 327.119 313.554 328.596 313.554 330.647C313.554 332.698 315.031 334.175 316.907 334.175C317.859 334.175 318.552 333.79 319.014 333.195V334H320.477V327.294ZM317.082 328.498C318.293 328.498 319.105 329.422 319.105 330.647C319.105 331.872 318.293 332.796 317.082 332.796C315.822 332.796 315.059 331.823 315.059 330.647C315.059 329.471 315.822 328.498 317.082 328.498ZM282.389 345.119C280.254 345.119 278.861 346.638 278.861 348.647C278.861 350.656 280.254 352.175 282.389 352.175C283.39 352.175 284.286 351.811 284.895 351.104L283.992 350.096C283.565 350.495 282.991 350.796 282.347 350.796C281.22 350.796 280.366 349.914 280.366 348.647C280.366 347.38 281.22 346.498 282.347 346.498C282.991 346.498 283.488 346.75 283.957 347.191L284.895 346.19C284.3 345.483 283.39 345.119 282.389 345.119ZM288.006 341.92H286.536V352H288.006V341.92ZM296.441 345.294H294.971V349.025C294.971 350.32 294.25 350.796 293.333 350.796C292.416 350.796 291.695 350.32 291.695 349.025V345.294H290.225V349.158C290.225 351.293 291.758 352.175 293.333 352.175C294.901 352.175 296.441 351.293 296.441 349.158V345.294ZM303.857 345.833C303.164 345.385 302.191 345.126 301.141 345.126C299.433 345.126 298.369 345.945 298.369 347.275C298.369 348.353 299.16 349.039 300.644 349.242L301.344 349.333C302.142 349.445 302.506 349.697 302.506 350.075C302.506 350.579 301.981 350.894 300.98 350.894C299.888 350.894 299.251 350.579 298.768 350.208L298.089 351.307C299.069 352.035 300.273 352.168 300.966 352.168C302.898 352.168 304.018 351.265 304.018 349.977C304.018 348.829 303.15 348.206 301.687 347.996L300.994 347.891C300.378 347.8 299.888 347.667 299.888 347.198C299.888 346.722 300.357 346.4 301.155 346.4C301.988 346.4 302.821 346.722 303.227 346.974L303.857 345.833ZM310.316 345.294H307.747V343.264H306.277V345.294H304.94V346.624H306.277V349.571C306.277 351.356 307.166 352.175 308.685 352.175C309.525 352.175 310.204 351.874 310.743 351.51L310.162 350.341C309.763 350.593 309.266 350.796 308.811 350.796C308.223 350.796 307.747 350.446 307.747 349.543V346.624H310.316V345.294ZM314.958 345.119C312.984 345.119 311.619 346.547 311.619 348.647C311.619 350.775 313.04 352.175 315.049 352.175C316.064 352.175 316.988 351.93 317.807 351.23L317.079 350.187C316.526 350.628 315.812 350.894 315.14 350.894C314.188 350.894 313.341 350.39 313.145 349.186H318.101C318.115 349.018 318.129 348.829 318.129 348.64C318.122 346.547 316.834 345.119 314.958 345.119ZM314.93 346.421C315.861 346.421 316.47 347.03 316.631 348.073H313.152C313.306 347.093 313.887 346.421 314.93 346.421ZM323.331 345.119C322.512 345.119 321.826 345.413 321.385 346.05V345.294H319.936V352H321.399V348.311C321.399 347.17 322.064 346.512 322.995 346.512C323.352 346.512 323.8 346.596 324.108 346.757L324.458 345.308C324.122 345.175 323.779 345.119 323.331 345.119Z" fill="#040531"/>
<path fill-rule="evenodd" clip-rule="evenodd" d="M153.5 178.5L153.5 213.594L153.5 213.604L153.5 213.607V213.609C153.5 214.999 152.56 216.017 151.606 216.688C150.61 217.388 149.266 217.958 147.742 218.412C144.672 219.325 140.521 219.868 136 219.868C131.479 219.868 127.328 219.325 124.259 218.412C122.734 217.958 121.39 217.388 120.395 216.688C119.44 216.017 118.5 214.999 118.5 213.609L118.5 213.594L118.5 178.5L121.5 178.5L121.5 213.597C121.507 213.624 121.575 213.851 122.12 214.234C122.744 214.673 123.744 215.129 125.114 215.536C127.836 216.346 131.685 216.868 136 216.868C140.315 216.868 144.165 216.346 146.886 215.536C148.257 215.129 149.256 214.673 149.88 214.234C150.427 213.85 150.494 213.623 150.5 213.597L150.5 213.594L150.5 178.5L153.5 178.5Z" fill="#040531"/>
<path fill-rule="evenodd" clip-rule="evenodd" d="M121.522 178.5C121.572 178.58 121.712 178.753 122.088 179.003C122.713 179.418 123.717 179.851 125.093 180.238C127.822 181.006 131.679 181.5 136 181.5C140.321 181.5 144.178 181.006 146.908 180.238C148.283 179.851 149.287 179.418 149.912 179.003C150.288 178.753 150.428 178.58 150.478 178.5C150.428 178.42 150.288 178.247 149.912 177.997C149.287 177.582 148.283 177.149 146.908 176.762C144.178 175.994 140.321 175.5 136 175.5C131.679 175.5 127.822 175.994 125.093 176.762C123.717 177.149 122.713 177.582 122.088 177.997C121.712 178.247 121.572 178.42 121.522 178.5ZM124.28 173.874C127.342 173.013 131.485 172.5 136 172.5C140.515 172.5 144.659 173.013 147.72 173.874C149.24 174.302 150.579 174.838 151.573 175.499C152.51 176.122 153.5 177.106 153.5 178.5C153.5 179.894 152.51 180.878 151.573 181.501C150.579 182.162 149.24 182.698 147.72 183.126C144.659 183.987 140.515 184.5 136 184.5C131.485 184.5 127.342 183.987 124.28 183.126C122.76 182.698 121.421 182.162 120.427 181.501C119.49 180.878 118.5 179.894 118.5 178.5C118.5 177.106 119.49 176.122 120.427 175.499C121.421 174.838 122.76 174.302 124.28 173.874Z" fill="#040531"/>
<rect x="112" y="190" width="28" height="4" fill="url(#paint8_linear_2_2)" style="mix-blend-mode:multiply"/>
<path d="M95.72 229.294H93.151V227.264H91.681V229.294H90.344V230.624H91.681V233.571C91.681 235.356 92.57 236.175 94.089 236.175C94.929 236.175 95.608 235.874 96.147 235.51L95.566 234.341C95.167 234.593 94.67 234.796 94.215 234.796C93.627 234.796 93.151 234.446 93.151 233.543V230.624H95.72V229.294ZM100.901 229.119C100.082 229.119 99.3964 229.413 98.9554 230.05V229.294H97.5064V236H98.9694V232.311C98.9694 231.17 99.6344 230.512 100.565 230.512C100.922 230.512 101.37 230.596 101.678 230.757L102.028 229.308C101.692 229.175 101.349 229.119 100.901 229.119ZM109.689 229.294H108.226V230.106C107.764 229.511 107.071 229.119 106.119 229.119C104.243 229.119 102.766 230.596 102.766 232.647C102.766 234.698 104.243 236.175 106.119 236.175C107.071 236.175 107.764 235.79 108.226 235.195V236H109.689V229.294ZM106.294 230.498C107.505 230.498 108.317 231.422 108.317 232.647C108.317 233.872 107.505 234.796 106.294 234.796C105.034 234.796 104.271 233.823 104.271 232.647C104.271 231.471 105.034 230.498 106.294 230.498ZM115.499 229.119C114.813 229.119 113.98 229.322 113.441 230.113V229.294H111.985V236H113.455V232.283C113.455 231.135 114.246 230.512 115.191 230.512C116.171 230.512 116.752 231.142 116.752 232.269V236H118.222V231.786C118.222 230.218 117.095 229.119 115.499 229.119ZM125.642 229.833C124.949 229.385 123.976 229.126 122.926 229.126C121.218 229.126 120.154 229.945 120.154 231.275C120.154 232.353 120.945 233.039 122.429 233.242L123.129 233.333C123.927 233.445 124.291 233.697 124.291 234.075C124.291 234.579 123.766 234.894 122.765 234.894C121.673 234.894 121.036 234.579 120.553 234.208L119.874 235.307C120.854 236.035 122.058 236.168 122.751 236.168C124.683 236.168 125.803 235.265 125.803 233.977C125.803 232.829 124.935 232.206 123.472 231.996L122.779 231.891C122.163 231.8 121.673 231.667 121.673 231.198C121.673 230.722 122.142 230.4 122.94 230.4C123.773 230.4 124.606 230.722 125.012 230.974L125.642 229.833ZM133.97 229.294H132.507V230.106C132.045 229.511 131.352 229.119 130.4 229.119C128.524 229.119 127.047 230.596 127.047 232.647C127.047 234.698 128.524 236.175 130.4 236.175C131.352 236.175 132.045 235.79 132.507 235.195V236H133.97V229.294ZM130.575 230.498C131.786 230.498 132.598 231.422 132.598 232.647C132.598 233.872 131.786 234.796 130.575 234.796C129.315 234.796 128.552 233.823 128.552 232.647C128.552 231.471 129.315 230.498 130.575 230.498ZM139.311 229.119C137.176 229.119 135.783 230.638 135.783 232.647C135.783 234.656 137.176 236.175 139.311 236.175C140.312 236.175 141.208 235.811 141.817 235.104L140.914 234.096C140.487 234.495 139.913 234.796 139.269 234.796C138.142 234.796 137.288 233.914 137.288 232.647C137.288 231.38 138.142 230.498 139.269 230.498C139.913 230.498 140.41 230.75 140.879 231.191L141.817 230.19C141.222 229.483 140.312 229.119 139.311 229.119ZM148.097 229.294H145.528V227.264H144.058V229.294H142.721V230.624H144.058V233.571C144.058 235.356 144.947 236.175 146.466 236.175C147.306 236.175 147.985 235.874 148.524 235.51L147.943 234.341C147.544 234.593 147.047 234.796 146.592 234.796C146.004 234.796 145.528 234.446 145.528 233.543V230.624H148.097V229.294ZM151.353 229.294H149.883V236H151.353V229.294ZM150.611 225.941C150.03 225.941 149.589 226.396 149.589 226.977C149.589 227.558 150.03 227.999 150.611 227.999C151.192 227.999 151.647 227.558 151.647 226.977C151.647 226.396 151.192 225.941 150.611 225.941ZM156.765 229.119C154.693 229.119 153.16 230.638 153.16 232.647C153.16 234.656 154.693 236.175 156.765 236.175C158.837 236.175 160.377 234.656 160.377 232.647C160.377 230.638 158.837 229.119 156.765 229.119ZM156.765 230.498C157.962 230.498 158.872 231.38 158.872 232.647C158.872 233.914 157.962 234.796 156.765 234.796C155.568 234.796 154.665 233.914 154.665 232.647C154.665 231.38 155.568 230.498 156.765 230.498ZM165.702 229.119C165.016 229.119 164.183 229.322 163.644 230.113V229.294H162.188V236H163.658V232.283C163.658 231.135 164.449 230.512 165.394 230.512C166.374 230.512 166.955 231.142 166.955 232.269V236H168.425V231.786C168.425 230.218 167.298 229.119 165.702 229.119ZM177.091 229.294H175.628V230.106C175.166 229.511 174.473 229.119 173.521 229.119C171.645 229.119 170.168 230.596 170.168 232.647C170.168 234.698 171.645 236.175 173.521 236.175C174.473 236.175 175.166 235.79 175.628 235.195V236H177.091V229.294ZM173.696 230.498C174.907 230.498 175.719 231.422 175.719 232.647C175.719 233.872 174.907 234.796 173.696 234.796C172.436 234.796 171.673 233.823 171.673 232.647C171.673 231.471 172.436 230.498 173.696 230.498ZM180.857 225.92H179.387V236H180.857V225.92ZM107.547 247.119C105.671 247.119 104.194 248.596 104.194 250.647C104.194 252.698 105.671 254.175 107.547 254.175C108.499 254.175 109.192 253.79 109.654 253.195V254H111.117V243.92H109.654V248.106C109.192 247.511 108.499 247.119 107.547 247.119ZM107.722 248.498C108.933 248.498 109.745 249.422 109.745 250.647C109.745 251.872 108.933 252.796 107.722 252.796C106.462 252.796 105.699 251.823 105.699 250.647C105.699 249.471 106.462 248.498 107.722 248.498ZM119.854 247.294H118.391V248.106C117.929 247.511 117.236 247.119 116.284 247.119C114.408 247.119 112.931 248.596 112.931 250.647C112.931 252.698 114.408 254.175 116.284 254.175C117.236 254.175 117.929 253.79 118.391 253.195V254H119.854V247.294ZM116.459 248.498C117.67 248.498 118.482 249.422 118.482 250.647C118.482 251.872 117.67 252.796 116.459 252.796C115.199 252.796 114.436 251.823 114.436 250.647C114.436 249.471 115.199 248.498 116.459 248.498ZM126.721 247.294H124.152V245.264H122.682V247.294H121.345V248.624H122.682V251.571C122.682 253.356 123.571 254.175 125.09 254.175C125.93 254.175 126.609 253.874 127.148 253.51L126.567 252.341C126.168 252.593 125.671 252.796 125.216 252.796C124.628 252.796 124.152 252.446 124.152 251.543V248.624H126.721V247.294ZM134.947 247.294H133.484V248.106C133.022 247.511 132.329 247.119 131.377 247.119C129.501 247.119 128.024 248.596 128.024 250.647C128.024 252.698 129.501 254.175 131.377 254.175C132.329 254.175 133.022 253.79 133.484 253.195V254H134.947V247.294ZM131.552 248.498C132.763 248.498 133.575 249.422 133.575 250.647C133.575 251.872 132.763 252.796 131.552 252.796C130.292 252.796 129.529 251.823 129.529 250.647C129.529 249.471 130.292 248.498 131.552 248.498ZM140.807 247.119C139.855 247.119 139.169 247.504 138.707 248.092V243.92H137.244V254H138.707V253.202C139.169 253.79 139.855 254.175 140.807 254.175C142.683 254.175 144.16 252.698 144.16 250.647C144.16 248.596 142.683 247.119 140.807 247.119ZM140.632 248.498C141.892 248.498 142.655 249.471 142.655 250.647C142.655 251.823 141.892 252.796 140.632 252.796C139.421 252.796 138.609 251.872 138.609 250.647C138.609 249.422 139.421 248.498 140.632 248.498ZM152.406 247.294H150.943V248.106C150.481 247.511 149.788 247.119 148.836 247.119C146.96 247.119 145.483 248.596 145.483 250.647C145.483 252.698 146.96 254.175 148.836 254.175C149.788 254.175 150.481 253.79 150.943 253.195V254H152.406V247.294ZM149.011 248.498C150.222 248.498 151.034 249.422 151.034 250.647C151.034 251.872 150.222 252.796 149.011 252.796C147.751 252.796 146.988 251.823 146.988 250.647C146.988 249.471 147.751 248.498 149.011 248.498ZM159.897 247.833C159.204 247.385 158.231 247.126 157.181 247.126C155.473 247.126 154.409 247.945 154.409 249.275C154.409 250.353 155.2 251.039 156.684 251.242L157.384 251.333C158.182 251.445 158.546 251.697 158.546 252.075C158.546 252.579 158.021 252.894 157.02 252.894C155.928 252.894 155.291 252.579 154.808 252.208L154.129 253.307C155.109 254.035 156.313 254.168 157.006 254.168C158.938 254.168 160.058 253.265 160.058 251.977C160.058 250.829 159.19 250.206 157.727 249.996L157.034 249.891C156.418 249.8 155.928 249.667 155.928 249.198C155.928 248.722 156.397 248.4 157.195 248.4C158.028 248.4 158.861 248.722 159.267 248.974L159.897 247.833ZM164.641 247.119C162.667 247.119 161.302 248.547 161.302 250.647C161.302 252.775 162.723 254.175 164.732 254.175C165.747 254.175 166.671 253.93 167.49 253.23L166.762 252.187C166.209 252.628 165.495 252.894 164.823 252.894C163.871 252.894 163.024 252.39 162.828 251.186H167.784C167.798 251.018 167.812 250.829 167.812 250.64C167.805 248.547 166.517 247.119 164.641 247.119ZM164.613 248.421C165.544 248.421 166.153 249.03 166.314 250.073H162.835C162.989 249.093 163.57 248.421 164.613 248.421Z" fill="#040531"/>
<rect x="449" y="302" width="28" height="4" fill="url(#paint9_linear_2_2)"/>
<path fill-rule="evenodd" clip-rule="evenodd" d="M458.5 289.409V324H455.5V289.409V289H455.527C455.685 287.814 456.511 286.912 457.377 286.284C458.373 285.561 459.719 284.973 461.246 284.504C464.32 283.561 468.475 283 473 283C477.525 283 481.68 283.561 484.754 284.504C486.281 284.973 487.627 285.561 488.623 286.284C489.489 286.912 490.315 287.814 490.473 289H490.5V289.409V324H487.5V289.409V289.409C487.5 289.409 487.5 289.409 487.5 289.409C487.5 289.406 487.5 289.398 487.493 289.379C487.486 289.356 487.468 289.314 487.427 289.252C487.34 289.122 487.169 288.936 486.862 288.712C486.239 288.261 485.241 287.792 483.874 287.372C481.157 286.538 477.312 286 473 286C468.688 286 464.843 286.538 462.126 287.372C460.759 287.792 459.761 288.261 459.138 288.712C458.831 288.936 458.66 289.122 458.573 289.252C458.532 289.314 458.514 289.356 458.507 289.379C458.5 289.398 458.5 289.406 458.5 289.409C458.5 289.409 458.5 289.409 458.5 289.409L458.5 289.409Z" fill="#040531"/>
<path fill-rule="evenodd" clip-rule="evenodd" d="M487.532 323.346C487.532 323.346 487.5 323.403 487.5 323.527H490.5C490.5 324.962 489.338 325.874 488.451 326.384C487.445 326.963 486.093 327.435 484.566 327.812C481.49 328.572 477.365 329.027 473 329.027C468.635 329.027 464.51 328.572 461.434 327.812C459.907 327.435 458.555 326.963 457.549 326.384C456.662 325.874 455.5 324.962 455.5 323.527H458.5C458.5 323.403 458.468 323.346 458.468 323.346C458.469 323.345 458.56 323.505 459.045 323.784C459.703 324.162 460.748 324.553 462.153 324.899C464.939 325.587 468.813 326.027 473 326.027C477.187 326.027 481.061 325.587 483.847 324.899C485.252 324.553 486.297 324.162 486.955 323.784C487.44 323.505 487.531 323.345 487.532 323.346Z" fill="#040531"/>
<path fill-rule="evenodd" clip-rule="evenodd" d="M487.532 289.818C487.532 289.819 487.5 289.876 487.5 290H490.5C490.5 291.435 489.338 292.346 488.451 292.857C487.445 293.436 486.093 293.908 484.566 294.285C481.49 295.044 477.365 295.5 473 295.5C468.635 295.5 464.51 295.044 461.434 294.285C459.907 293.908 458.555 293.436 457.549 292.857C456.662 292.346 455.5 291.435 455.5 290H458.5C458.5 289.876 458.468 289.819 458.468 289.818C458.469 289.818 458.56 289.978 459.045 290.257C459.703 290.635 460.748 291.025 462.153 291.372C464.939 292.06 468.813 292.5 473 292.5C477.187 292.5 481.061 292.06 483.847 291.372C485.252 291.025 486.297 290.635 486.955 290.257C487.44 289.978 487.531 289.818 487.532 289.818Z" fill="#040531"/>
<path fill-rule="evenodd" clip-rule="evenodd" d="M457 310.5C457.828 310.5 458.5 311.172 458.5 312C458.5 313.933 460.067 315.5 462 315.5C463.933 315.5 465.5 313.933 465.5 312C465.5 311.172 466.172 310.5 467 310.5C467.828 310.5 468.5 311.172 468.5 312C468.5 315.59 465.59 318.5 462 318.5C458.41 318.5 455.5 315.59 455.5 312C455.5 311.172 456.172 310.5 457 310.5Z" fill="#040531"/>
<path fill-rule="evenodd" clip-rule="evenodd" d="M467 310.5C467.828 310.5 468.5 311.172 468.5 312C468.5 313.689 470.247 315.5 473 315.5C475.753 315.5 477.5 313.689 477.5 312C477.5 311.172 478.172 310.5 479 310.5C479.828 310.5 480.5 311.172 480.5 312C480.5 315.834 476.874 318.5 473 318.5C469.126 318.5 465.5 315.834 465.5 312C465.5 311.172 466.172 310.5 467 310.5Z" fill="#040531"/>
<path fill-rule="evenodd" clip-rule="evenodd" d="M479 310.5C479.828 310.5 480.5 311.172 480.5 312C480.5 313.933 482.067 315.5 484 315.5C485.933 315.5 487.5 313.933 487.5 312C487.5 311.172 488.172 310.5 489 310.5C489.828 310.5 490.5 311.172 490.5 312C490.5 315.59 487.59 318.5 484 318.5C480.41 318.5 477.5 315.59 477.5 312C477.5 311.172 478.172 310.5 479 310.5Z" fill="#040531"/>
<path d="M445.019 338.119C443.143 338.119 441.666 339.596 441.666 341.647C441.666 343.698 443.143 345.175 445.019 345.175C445.971 345.175 446.664 344.79 447.126 344.195V345H448.589V334.92H447.126V339.106C446.664 338.511 445.971 338.119 445.019 338.119ZM445.194 339.498C446.405 339.498 447.217 340.422 447.217 341.647C447.217 342.872 446.405 343.796 445.194 343.796C443.934 343.796 443.171 342.823 443.171 341.647C443.171 340.471 443.934 339.498 445.194 339.498ZM457.325 338.294H455.862V339.106C455.4 338.511 454.707 338.119 453.755 338.119C451.879 338.119 450.402 339.596 450.402 341.647C450.402 343.698 451.879 345.175 453.755 345.175C454.707 345.175 455.4 344.79 455.862 344.195V345H457.325V338.294ZM453.93 339.498C455.141 339.498 455.953 340.422 455.953 341.647C455.953 342.872 455.141 343.796 453.93 343.796C452.67 343.796 451.907 342.823 451.907 341.647C451.907 340.471 452.67 339.498 453.93 339.498ZM464.193 338.294H461.624V336.264H460.154V338.294H458.817V339.624H460.154V342.571C460.154 344.356 461.043 345.175 462.562 345.175C463.402 345.175 464.081 344.874 464.62 344.51L464.039 343.341C463.64 343.593 463.143 343.796 462.688 343.796C462.1 343.796 461.624 343.446 461.624 342.543V339.624H464.193V338.294ZM472.419 338.294H470.956V339.106C470.494 338.511 469.801 338.119 468.849 338.119C466.973 338.119 465.496 339.596 465.496 341.647C465.496 343.698 466.973 345.175 468.849 345.175C469.801 345.175 470.494 344.79 470.956 344.195V345H472.419V338.294ZM469.024 339.498C470.235 339.498 471.047 340.422 471.047 341.647C471.047 342.872 470.235 343.796 469.024 343.796C467.764 343.796 467.001 342.823 467.001 341.647C467.001 340.471 467.764 339.498 469.024 339.498ZM479.959 334.92H478.489V345H479.959V334.92ZM488.689 338.294H487.226V339.106C486.764 338.511 486.071 338.119 485.119 338.119C483.243 338.119 481.766 339.596 481.766 341.647C481.766 343.698 483.243 345.175 485.119 345.175C486.071 345.175 486.764 344.79 487.226 344.195V345H488.689V338.294ZM485.294 339.498C486.505 339.498 487.317 340.422 487.317 341.647C487.317 342.872 486.505 343.796 485.294 343.796C484.034 343.796 483.271 342.823 483.271 341.647C483.271 340.471 484.034 339.498 485.294 339.498ZM492.455 334.92H490.985V345H492.455V342.172H493.183L495.416 345H497.271L494.436 341.451L497.243 338.294H495.402L493.19 340.842H492.455V334.92ZM501.169 338.119C499.195 338.119 497.83 339.547 497.83 341.647C497.83 343.775 499.251 345.175 501.26 345.175C502.275 345.175 503.199 344.93 504.018 344.23L503.29 343.187C502.737 343.628 502.023 343.894 501.351 343.894C500.399 343.894 499.552 343.39 499.356 342.186H504.312C504.326 342.018 504.34 341.829 504.34 341.64C504.333 339.547 503.045 338.119 501.169 338.119ZM501.141 339.421C502.072 339.421 502.681 340.03 502.842 341.073H499.363C499.517 340.093 500.098 339.421 501.141 339.421Z" fill="#040531"/>
<path fill-rule="evenodd" clip-rule="evenodd" d="M490.5 151.5L490.5 186.594L490.5 186.604L490.5 186.607V186.609C490.5 187.999 489.56 189.017 488.606 189.688C487.61 190.388 486.266 190.958 484.742 191.412C481.672 192.325 477.521 192.868 473 192.868C468.479 192.868 464.328 192.325 461.259 191.412C459.734 190.958 458.39 190.388 457.395 189.688C456.44 189.017 455.5 187.999 455.5 186.609L455.5 186.594L455.5 151.5L458.5 151.5L458.5 186.597C458.507 186.624 458.575 186.851 459.12 187.234C459.744 187.673 460.744 188.129 462.114 188.536C464.836 189.346 468.685 189.868 473 189.868C477.315 189.868 481.165 189.346 483.886 188.536C485.257 188.129 486.256 187.673 486.88 187.234C487.427 186.85 487.494 186.623 487.5 186.597L487.5 186.594L487.5 151.5L490.5 151.5Z" fill="#040531"/>
<path fill-rule="evenodd" clip-rule="evenodd" d="M458.522 151.5C458.572 151.58 458.712 151.753 459.088 152.003C459.713 152.418 460.717 152.851 462.093 153.238C464.822 154.006 468.679 154.5 473 154.5C477.321 154.5 481.178 154.006 483.908 153.238C485.283 152.851 486.287 152.418 486.912 152.003C487.288 151.753 487.428 151.58 487.478 151.5C487.428 151.42 487.288 151.247 486.912 150.997C486.287 150.582 485.283 150.149 483.908 149.762C481.178 148.994 477.321 148.5 473 148.5C468.679 148.5 464.822 148.994 462.093 149.762C460.717 150.149 459.713 150.582 459.088 150.997C458.712 151.247 458.572 151.42 458.522 151.5ZM461.28 146.874C464.342 146.013 468.485 145.5 473 145.5C477.515 145.5 481.659 146.013 484.72 146.874C486.24 147.302 487.579 147.838 488.573 148.499C489.51 149.122 490.5 150.106 490.5 151.5C490.5 152.894 489.51 153.878 488.573 154.501C487.579 155.162 486.24 155.698 484.72 156.126C481.659 156.987 477.515 157.5 473 157.5C468.485 157.5 464.342 156.987 461.28 156.126C459.76 155.698 458.421 155.162 457.427 154.501C456.49 153.878 455.5 152.894 455.5 151.5C455.5 150.106 456.49 149.122 457.427 148.499C458.421 147.838 459.76 147.302 461.28 146.874Z" fill="#040531"/>
<rect x="449" y="163" width="28" height="4" fill="url(#paint10_linear_2_2)" style="mix-blend-mode:multiply"/>
<path d="M449.101 200.294H447.638V201.106C447.176 200.511 446.483 200.119 445.531 200.119C443.655 200.119 442.178 201.596 442.178 203.647C442.178 205.698 443.655 207.175 445.531 207.175C446.483 207.175 447.176 206.79 447.638 206.195V207H449.101V200.294ZM445.706 201.498C446.917 201.498 447.729 202.422 447.729 203.647C447.729 204.872 446.917 205.796 445.706 205.796C444.446 205.796 443.683 204.823 443.683 203.647C443.683 202.471 444.446 201.498 445.706 201.498ZM454.911 200.119C454.225 200.119 453.392 200.322 452.853 201.113V200.294H451.397V207H452.867V203.283C452.867 202.135 453.658 201.512 454.603 201.512C455.583 201.512 456.164 202.142 456.164 203.269V207H457.634V202.786C457.634 201.218 456.507 200.119 454.911 200.119ZM466.3 200.294H464.837V201.106C464.375 200.511 463.682 200.119 462.73 200.119C460.854 200.119 459.377 201.596 459.377 203.647C459.377 205.698 460.854 207.175 462.73 207.175C463.682 207.175 464.375 206.79 464.837 206.195V207H466.3V200.294ZM462.905 201.498C464.116 201.498 464.928 202.422 464.928 203.647C464.928 204.872 464.116 205.796 462.905 205.796C461.645 205.796 460.882 204.823 460.882 203.647C460.882 202.471 461.645 201.498 462.905 201.498ZM470.066 196.92H468.596V207H470.066V196.92ZM478.81 200.294H477.2L475.121 204.144L472.965 200.294H471.32L474.295 205.621L471.894 209.842H473.518L478.81 200.294ZM484.816 200.294H482.247V198.264H480.777V200.294H479.44V201.624H480.777V204.571C480.777 206.356 481.666 207.175 483.185 207.175C484.025 207.175 484.704 206.874 485.243 206.51L484.662 205.341C484.263 205.593 483.766 205.796 483.311 205.796C482.723 205.796 482.247 205.446 482.247 204.543V201.624H484.816V200.294ZM488.072 200.294H486.602V207H488.072V200.294ZM487.33 196.941C486.749 196.941 486.308 197.396 486.308 197.977C486.308 198.558 486.749 198.999 487.33 198.999C487.911 198.999 488.366 198.558 488.366 197.977C488.366 197.396 487.911 196.941 487.33 196.941ZM493.407 200.119C491.272 200.119 489.879 201.638 489.879 203.647C489.879 205.656 491.272 207.175 493.407 207.175C494.408 207.175 495.304 206.811 495.913 206.104L495.01 205.096C494.583 205.495 494.009 205.796 493.365 205.796C492.238 205.796 491.384 204.914 491.384 203.647C491.384 202.38 492.238 201.498 493.365 201.498C494.009 201.498 494.506 201.75 494.975 202.191L495.913 201.19C495.318 200.483 494.408 200.119 493.407 200.119ZM502.747 200.833C502.054 200.385 501.081 200.126 500.031 200.126C498.323 200.126 497.259 200.945 497.259 202.275C497.259 203.353 498.05 204.039 499.534 204.242L500.234 204.333C501.032 204.445 501.396 204.697 501.396 205.075C501.396 205.579 500.871 205.894 499.87 205.894C498.778 205.894 498.141 205.579 497.658 205.208L496.979 206.307C497.959 207.035 499.163 207.168 499.856 207.168C501.788 207.168 502.908 206.265 502.908 204.977C502.908 203.829 502.04 203.206 500.577 202.996L499.884 202.891C499.268 202.8 498.778 202.667 498.778 202.198C498.778 201.722 499.247 201.4 500.045 201.4C500.878 201.4 501.711 201.722 502.117 201.974L502.747 200.833ZM444.047 218.119C442.171 218.119 440.694 219.596 440.694 221.647C440.694 223.698 442.171 225.175 444.047 225.175C444.999 225.175 445.692 224.79 446.154 224.195V225H447.617V214.92H446.154V219.106C445.692 218.511 444.999 218.119 444.047 218.119ZM444.222 219.498C445.433 219.498 446.245 220.422 446.245 221.647C446.245 222.872 445.433 223.796 444.222 223.796C442.962 223.796 442.199 222.823 442.199 221.647C442.199 220.471 442.962 219.498 444.222 219.498ZM456.354 218.294H454.891V219.106C454.429 218.511 453.736 218.119 452.784 218.119C450.908 218.119 449.431 219.596 449.431 221.647C449.431 223.698 450.908 225.175 452.784 225.175C453.736 225.175 454.429 224.79 454.891 224.195V225H456.354V218.294ZM452.959 219.498C454.17 219.498 454.982 220.422 454.982 221.647C454.982 222.872 454.17 223.796 452.959 223.796C451.699 223.796 450.936 222.823 450.936 221.647C450.936 220.471 451.699 219.498 452.959 219.498ZM463.221 218.294H460.652V216.264H459.182V218.294H457.845V219.624H459.182V222.571C459.182 224.356 460.071 225.175 461.59 225.175C462.43 225.175 463.109 224.874 463.648 224.51L463.067 223.341C462.668 223.593 462.171 223.796 461.716 223.796C461.128 223.796 460.652 223.446 460.652 222.543V219.624H463.221V218.294ZM471.447 218.294H469.984V219.106C469.522 218.511 468.829 218.119 467.877 218.119C466.001 218.119 464.524 219.596 464.524 221.647C464.524 223.698 466.001 225.175 467.877 225.175C468.829 225.175 469.522 224.79 469.984 224.195V225H471.447V218.294ZM468.052 219.498C469.263 219.498 470.075 220.422 470.075 221.647C470.075 222.872 469.263 223.796 468.052 223.796C466.792 223.796 466.029 222.823 466.029 221.647C466.029 220.471 466.792 219.498 468.052 219.498ZM477.307 218.119C476.355 218.119 475.669 218.504 475.207 219.092V214.92H473.744V225H475.207V224.202C475.669 224.79 476.355 225.175 477.307 225.175C479.183 225.175 480.66 223.698 480.66 221.647C480.66 219.596 479.183 218.119 477.307 218.119ZM477.132 219.498C478.392 219.498 479.155 220.471 479.155 221.647C479.155 222.823 478.392 223.796 477.132 223.796C475.921 223.796 475.109 222.872 475.109 221.647C475.109 220.422 475.921 219.498 477.132 219.498ZM488.906 218.294H487.443V219.106C486.981 218.511 486.288 218.119 485.336 218.119C483.46 218.119 481.983 219.596 481.983 221.647C481.983 223.698 483.46 225.175 485.336 225.175C486.288 225.175 486.981 224.79 487.443 224.195V225H488.906V218.294ZM485.511 219.498C486.722 219.498 487.534 220.422 487.534 221.647C487.534 222.872 486.722 223.796 485.511 223.796C484.251 223.796 483.488 222.823 483.488 221.647C483.488 220.471 484.251 219.498 485.511 219.498ZM496.397 218.833C495.704 218.385 494.731 218.126 493.681 218.126C491.973 218.126 490.909 218.945 490.909 220.275C490.909 221.353 491.7 222.039 493.184 222.242L493.884 222.333C494.682 222.445 495.046 222.697 495.046 223.075C495.046 223.579 494.521 223.894 493.52 223.894C492.428 223.894 491.791 223.579 491.308 223.208L490.629 224.307C491.609 225.035 492.813 225.168 493.506 225.168C495.438 225.168 496.558 224.265 496.558 222.977C496.558 221.829 495.69 221.206 494.227 220.996L493.534 220.891C492.918 220.8 492.428 220.667 492.428 220.198C492.428 219.722 492.897 219.4 493.695 219.4C494.528 219.4 495.361 219.722 495.767 219.974L496.397 218.833ZM501.141 218.119C499.167 218.119 497.802 219.547 497.802 221.647C497.802 223.775 499.223 225.175 501.232 225.175C502.247 225.175 503.171 224.93 503.99 224.23L503.262 223.187C502.709 223.628 501.995 223.894 501.323 223.894C500.371 223.894 499.524 223.39 499.328 222.186H504.284C504.298 222.018 504.312 221.829 504.312 221.64C504.305 219.547 503.017 218.119 501.141 218.119ZM501.113 219.421C502.044 219.421 502.653 220.03 502.814 221.073H499.335C499.489 220.093 500.07 219.421 501.113 219.421Z" fill="#040531"/>
<path fill-rule="evenodd" clip-rule="evenodd" d="M6 189V217H34V189H6ZM5 186C3.89543 186 3 186.895 3 188V218C3 219.105 3.89543 220 5 220H35C36.1046 220 37 219.105 37 218V188C37 186.895 36.1046 186 35 186H5Z" fill="#040531"/>
<path fill-rule="evenodd" clip-rule="evenodd" d="M22 228L22 224L41.1927 224L41.1926 205.193L45.1926 205.193L45.1927 228L22 228Z" fill="url(#paint11_linear_2_2)"/>
<path d="M17.9972 237.294H16.5342V238.106C16.0722 237.511 15.3792 237.119 14.4272 237.119C12.5512 237.119 11.0742 238.596 11.0742 240.647C11.0742 242.698 12.5512 244.175 14.4272 244.175C15.3792 244.175 16.0722 243.79 16.5342 243.195V244H17.9972V237.294ZM14.6022 238.498C15.8132 238.498 16.6252 239.422 16.6252 240.647C16.6252 241.872 15.8132 242.796 14.6022 242.796C13.3422 242.796 12.5792 241.823 12.5792 240.647C12.5792 239.471 13.3422 238.498 14.6022 238.498ZM23.8565 237.119C22.9045 237.119 22.2185 237.504 21.7565 238.092V237.294H20.2935V246.8H21.7565V243.202C22.2185 243.79 22.9045 244.175 23.8565 244.175C25.7325 244.175 27.2095 242.698 27.2095 240.647C27.2095 238.596 25.7325 237.119 23.8565 237.119ZM23.6815 238.498C24.9415 238.498 25.7045 239.471 25.7045 240.647C25.7045 241.823 24.9415 242.796 23.6815 242.796C22.4705 242.796 21.6585 241.872 21.6585 240.647C21.6585 239.422 22.4705 238.498 23.6815 238.498ZM32.5792 237.119C31.6272 237.119 30.9412 237.504 30.4792 238.092V237.294H29.0162V246.8H30.4792V243.202C30.9412 243.79 31.6272 244.175 32.5792 244.175C34.4552 244.175 35.9322 242.698 35.9322 240.647C35.9322 238.596 34.4552 237.119 32.5792 237.119ZM32.4042 238.498C33.6642 238.498 34.4272 239.471 34.4272 240.647C34.4272 241.823 33.6642 242.796 32.4042 242.796C31.1932 242.796 30.3812 241.872 30.3812 240.647C30.3812 239.422 31.1932 238.498 32.4042 238.498Z" fill="#040531"/>
<path d="M176.424 193.119C174.289 193.119 172.896 194.638 172.896 196.647C172.896 198.656 174.289 200.175 176.424 200.175C177.425 200.175 178.321 199.811 178.93 199.104L178.027 198.096C177.6 198.495 177.026 198.796 176.382 198.796C175.255 198.796 174.401 197.914 174.401 196.647C174.401 195.38 175.255 194.498 176.382 194.498C177.026 194.498 177.523 194.75 177.992 195.191L178.93 194.19C178.335 193.483 177.425 193.119 176.424 193.119ZM183.556 193.119C181.484 193.119 179.951 194.638 179.951 196.647C179.951 198.656 181.484 200.175 183.556 200.175C185.628 200.175 187.168 198.656 187.168 196.647C187.168 194.638 185.628 193.119 183.556 193.119ZM183.556 194.498C184.753 194.498 185.663 195.38 185.663 196.647C185.663 197.914 184.753 198.796 183.556 198.796C182.359 198.796 181.456 197.914 181.456 196.647C181.456 195.38 182.359 194.498 183.556 194.498ZM192.493 193.119C191.807 193.119 190.974 193.322 190.435 194.113V193.294H188.979V200H190.449V196.283C190.449 195.135 191.24 194.512 192.185 194.512C193.165 194.512 193.746 195.142 193.746 196.269V200H195.216V195.786C195.216 194.218 194.089 193.119 192.493 193.119ZM200.956 193.119C200.27 193.119 199.437 193.322 198.898 194.113V193.294H197.442V200H198.912V196.283C198.912 195.135 199.703 194.512 200.648 194.512C201.628 194.512 202.209 195.142 202.209 196.269V200H203.679V195.786C203.679 194.218 202.552 193.119 200.956 193.119ZM208.761 193.119C206.787 193.119 205.422 194.547 205.422 196.647C205.422 198.775 206.843 200.175 208.852 200.175C209.867 200.175 210.791 199.93 211.61 199.23L210.882 198.187C210.329 198.628 209.615 198.894 208.943 198.894C207.991 198.894 207.144 198.39 206.948 197.186H211.904C211.918 197.018 211.932 196.829 211.932 196.64C211.925 194.547 210.637 193.119 208.761 193.119ZM208.733 194.421C209.664 194.421 210.273 195.03 210.434 196.073H206.955C207.109 195.093 207.69 194.421 208.733 194.421ZM216.784 193.119C214.649 193.119 213.256 194.638 213.256 196.647C213.256 198.656 214.649 200.175 216.784 200.175C217.785 200.175 218.681 199.811 219.29 199.104L218.387 198.096C217.96 198.495 217.386 198.796 216.742 198.796C215.615 198.796 214.761 197.914 214.761 196.647C214.761 195.38 215.615 194.498 216.742 194.498C217.386 194.498 217.883 194.75 218.352 195.191L219.29 194.19C218.695 193.483 217.785 193.119 216.784 193.119ZM225.57 193.294H223.001V191.264H221.531V193.294H220.194V194.624H221.531V197.571C221.531 199.356 222.42 200.175 223.939 200.175C224.779 200.175 225.458 199.874 225.997 199.51L225.416 198.341C225.017 198.593 224.52 198.796 224.065 198.796C223.477 198.796 223.001 198.446 223.001 197.543V194.624H225.57V193.294ZM230.478 193.119C228.406 193.119 226.873 194.638 226.873 196.647C226.873 198.656 228.406 200.175 230.478 200.175C232.55 200.175 234.09 198.656 234.09 196.647C234.09 194.638 232.55 193.119 230.478 193.119ZM230.478 194.498C231.675 194.498 232.585 195.38 232.585 196.647C232.585 197.914 231.675 198.796 230.478 198.796C229.281 198.796 228.378 197.914 228.378 196.647C228.378 195.38 229.281 194.498 230.478 194.498ZM239.296 193.119C238.477 193.119 237.791 193.413 237.35 194.05V193.294H235.901V200H237.364V196.311C237.364 195.17 238.029 194.512 238.96 194.512C239.317 194.512 239.765 194.596 240.073 194.757L240.423 193.308C240.087 193.175 239.744 193.119 239.296 193.119Z" fill="#040531"/>
<path d="M370.424 164.119C368.289 164.119 366.896 165.638 366.896 167.647C366.896 169.656 368.289 171.175 370.424 171.175C371.425 171.175 372.321 170.811 372.93 170.104L372.027 169.096C371.6 169.495 371.026 169.796 370.382 169.796C369.255 169.796 368.401 168.914 368.401 167.647C368.401 166.38 369.255 165.498 370.382 165.498C371.026 165.498 371.523 165.75 371.992 166.191L372.93 165.19C372.335 164.483 371.425 164.119 370.424 164.119ZM377.556 164.119C375.484 164.119 373.951 165.638 373.951 167.647C373.951 169.656 375.484 171.175 377.556 171.175C379.628 171.175 381.168 169.656 381.168 167.647C381.168 165.638 379.628 164.119 377.556 164.119ZM377.556 165.498C378.753 165.498 379.663 166.38 379.663 167.647C379.663 168.914 378.753 169.796 377.556 169.796C376.359 169.796 375.456 168.914 375.456 167.647C375.456 166.38 376.359 165.498 377.556 165.498ZM386.493 164.119C385.807 164.119 384.974 164.322 384.435 165.113V164.294H382.979V171H384.449V167.283C384.449 166.135 385.24 165.512 386.185 165.512C387.165 165.512 387.746 166.142 387.746 167.269V171H389.216V166.786C389.216 165.218 388.089 164.119 386.493 164.119ZM394.956 164.119C394.27 164.119 393.437 164.322 392.898 165.113V164.294H391.442V171H392.912V167.283C392.912 166.135 393.703 165.512 394.648 165.512C395.628 165.512 396.209 166.142 396.209 167.269V171H397.679V166.786C397.679 165.218 396.552 164.119 394.956 164.119ZM402.761 164.119C400.787 164.119 399.422 165.547 399.422 167.647C399.422 169.775 400.843 171.175 402.852 171.175C403.867 171.175 404.791 170.93 405.61 170.23L404.882 169.187C404.329 169.628 403.615 169.894 402.943 169.894C401.991 169.894 401.144 169.39 400.948 168.186H405.904C405.918 168.018 405.932 167.829 405.932 167.64C405.925 165.547 404.637 164.119 402.761 164.119ZM402.733 165.421C403.664 165.421 404.273 166.03 404.434 167.073H400.955C401.109 166.093 401.69 165.421 402.733 165.421ZM410.784 164.119C408.649 164.119 407.256 165.638 407.256 167.647C407.256 169.656 408.649 171.175 410.784 171.175C411.785 171.175 412.681 170.811 413.29 170.104L412.387 169.096C411.96 169.495 411.386 169.796 410.742 169.796C409.615 169.796 408.761 168.914 408.761 167.647C408.761 166.38 409.615 165.498 410.742 165.498C411.386 165.498 411.883 165.75 412.352 166.191L413.29 165.19C412.695 164.483 411.785 164.119 410.784 164.119ZM419.57 164.294H417.001V162.264H415.531V164.294H414.194V165.624H415.531V168.571C415.531 170.356 416.42 171.175 417.939 171.175C418.779 171.175 419.458 170.874 419.997 170.51L419.416 169.341C419.017 169.593 418.52 169.796 418.065 169.796C417.477 169.796 417.001 169.446 417.001 168.543V165.624H419.57V164.294ZM424.478 164.119C422.406 164.119 420.873 165.638 420.873 167.647C420.873 169.656 422.406 171.175 424.478 171.175C426.55 171.175 428.09 169.656 428.09 167.647C428.09 165.638 426.55 164.119 424.478 164.119ZM424.478 165.498C425.675 165.498 426.585 166.38 426.585 167.647C426.585 168.914 425.675 169.796 424.478 169.796C423.281 169.796 422.378 168.914 422.378 167.647C422.378 166.38 423.281 165.498 424.478 165.498ZM433.296 164.119C432.477 164.119 431.791 164.413 431.35 165.05V164.294H429.901V171H431.364V167.311C431.364 166.17 432.029 165.512 432.96 165.512C433.317 165.512 433.765 165.596 434.073 165.757L434.423 164.308C434.087 164.175 433.744 164.119 433.296 164.119Z" fill="#040531"/>
<path d="M371.424 293.119C369.289 293.119 367.896 294.638 367.896 296.647C367.896 298.656 369.289 300.175 371.424 300.175C372.425 300.175 373.321 299.811 373.93 299.104L373.027 298.096C372.6 298.495 372.026 298.796 371.382 298.796C370.255 298.796 369.401 297.914 369.401 296.647C369.401 295.38 370.255 294.498 371.382 294.498C372.026 294.498 372.523 294.75 372.992 295.191L373.93 294.19C373.335 293.483 372.425 293.119 371.424 293.119ZM378.556 293.119C376.484 293.119 374.951 294.638 374.951 296.647C374.951 298.656 376.484 300.175 378.556 300.175C380.628 300.175 382.168 298.656 382.168 296.647C382.168 294.638 380.628 293.119 378.556 293.119ZM378.556 294.498C379.753 294.498 380.663 295.38 380.663 296.647C380.663 297.914 379.753 298.796 378.556 298.796C377.359 298.796 376.456 297.914 376.456 296.647C376.456 295.38 377.359 294.498 378.556 294.498ZM387.493 293.119C386.807 293.119 385.974 293.322 385.435 294.113V293.294H383.979V300H385.449V296.283C385.449 295.135 386.24 294.512 387.185 294.512C388.165 294.512 388.746 295.142 388.746 296.269V300H390.216V295.786C390.216 294.218 389.089 293.119 387.493 293.119ZM395.956 293.119C395.27 293.119 394.437 293.322 393.898 294.113V293.294H392.442V300H393.912V296.283C393.912 295.135 394.703 294.512 395.648 294.512C396.628 294.512 397.209 295.142 397.209 296.269V300H398.679V295.786C398.679 294.218 397.552 293.119 395.956 293.119ZM403.761 293.119C401.787 293.119 400.422 294.547 400.422 296.647C400.422 298.775 401.843 300.175 403.852 300.175C404.867 300.175 405.791 299.93 406.61 299.23L405.882 298.187C405.329 298.628 404.615 298.894 403.943 298.894C402.991 298.894 402.144 298.39 401.948 297.186H406.904C406.918 297.018 406.932 296.829 406.932 296.64C406.925 294.547 405.637 293.119 403.761 293.119ZM403.733 294.421C404.664 294.421 405.273 295.03 405.434 296.073H401.955C402.109 295.093 402.69 294.421 403.733 294.421ZM411.784 293.119C409.649 293.119 408.256 294.638 408.256 296.647C408.256 298.656 409.649 300.175 411.784 300.175C412.785 300.175 413.681 299.811 414.29 299.104L413.387 298.096C412.96 298.495 412.386 298.796 411.742 298.796C410.615 298.796 409.761 297.914 409.761 296.647C409.761 295.38 410.615 294.498 411.742 294.498C412.386 294.498 412.883 294.75 413.352 295.191L414.29 294.19C413.695 293.483 412.785 293.119 411.784 293.119ZM420.57 293.294H418.001V291.264H416.531V293.294H415.194V294.624H416.531V297.571C416.531 299.356 417.42 300.175 418.939 300.175C419.779 300.175 420.458 299.874 420.997 299.51L420.416 298.341C420.017 298.593 419.52 298.796 419.065 298.796C418.477 298.796 418.001 298.446 418.001 297.543V294.624H420.57V293.294ZM425.478 293.119C423.406 293.119 421.873 294.638 421.873 296.647C421.873 298.656 423.406 300.175 425.478 300.175C427.55 300.175 429.09 298.656 429.09 296.647C429.09 294.638 427.55 293.119 425.478 293.119ZM425.478 294.498C426.675 294.498 427.585 295.38 427.585 296.647C427.585 297.914 426.675 298.796 425.478 298.796C424.281 298.796 423.378 297.914 423.378 296.647C423.378 295.38 424.281 294.498 425.478 294.498ZM434.296 293.119C433.477 293.119 432.791 293.413 432.35 294.05V293.294H430.901V300H432.364V296.311C432.364 295.17 433.029 294.512 433.96 294.512C434.317 294.512 434.765 294.596 435.073 294.757L435.423 293.308C435.087 293.175 434.744 293.119 434.296 293.119Z" fill="#040531"/>
<line x1="590.5" y1="231" x2="590.5" y2="212.752" stroke="black"/>
<line x1="590.5" y1="289" x2="590.5" y2="270.752" stroke="black"/>
<path d="M245 215L230 206.34V223.66L245 215ZM167 216.5L231.5 216.5V213.5L167 213.5V216.5Z" fill="#040531"/>
<path d="M442 187L427 178.34V195.66L442 187ZM364 188.5L428.5 188.5V185.5L364 185.5V188.5Z" fill="#040531"/>
<path d="M442 315L427 306.34V323.66L442 315ZM364 316.5H428.5V313.5H364V316.5Z" fill="#040531"/>
<rect x="184" y="202" width="36" height="41" fill="#F4FCFF"/>
<rect x="383" y="303" width="36" height="41" fill="#F4FCFF"/>
<rect x="383" y="175" width="36" height="41" fill="#F4FCFF"/>
<path fill-rule="evenodd" clip-rule="evenodd" d="M203.548 225.804C203.378 226.081 203.076 226.25 202.75 226.25H196.187C195.861 226.25 195.558 226.08 195.387 225.801L189.45 216.077C189.268 215.779 189.267 215.404 189.447 215.105L196.009 204.204C196.179 203.922 196.484 203.75 196.812 203.75H201.812C202.33 203.75 202.75 204.17 202.75 204.688C202.75 205.205 202.33 205.625 201.812 205.625H197.342L191.346 215.585L196.714 224.375H202.226L204.452 220.759C204.723 220.318 205.3 220.18 205.741 220.452C206.182 220.723 206.32 221.3 206.048 221.741L203.548 225.804Z" fill="#040531"/>
<path fill-rule="evenodd" clip-rule="evenodd" d="M204.452 204.196C204.622 203.919 204.924 203.75 205.25 203.75H211.813C212.139 203.75 212.442 203.92 212.613 204.199L218.55 213.923C218.732 214.221 218.733 214.596 218.553 214.895L211.991 225.796C211.821 226.078 211.516 226.25 211.188 226.25H206.188C205.67 226.25 205.25 225.83 205.25 225.312C205.25 224.795 205.67 224.375 206.188 224.375H210.658L216.654 214.415L211.286 205.625H205.774L203.548 209.241C203.277 209.682 202.7 209.82 202.259 209.548C201.818 209.277 201.68 208.7 201.952 208.259L204.452 204.196Z" fill="#040531"/>
<rect x="206.5" y="212.5" width="5" height="5" transform="rotate(90 206.5 212.5)" fill="url(#paint12_linear_2_2)"/>
<path fill-rule="evenodd" clip-rule="evenodd" d="M400.548 325.804C400.378 326.081 400.076 326.25 399.75 326.25H393.187C392.861 326.25 392.558 326.08 392.387 325.801L386.45 316.077C386.268 315.779 386.267 315.404 386.447 315.105L393.009 304.204C393.179 303.922 393.484 303.75 393.812 303.75H398.812C399.33 303.75 399.75 304.17 399.75 304.688C399.75 305.205 399.33 305.625 398.812 305.625H394.342L388.346 315.585L393.714 324.375H399.226L401.452 320.759C401.723 320.318 402.3 320.18 402.741 320.452C403.182 320.723 403.32 321.3 403.048 321.741L400.548 325.804Z" fill="#040531"/>
<path fill-rule="evenodd" clip-rule="evenodd" d="M401.452 304.196C401.622 303.919 401.924 303.75 402.25 303.75H408.813C409.139 303.75 409.442 303.92 409.613 304.199L415.55 313.923C415.732 314.221 415.733 314.596 415.553 314.895L408.991 325.796C408.821 326.078 408.516 326.25 408.188 326.25H403.188C402.67 326.25 402.25 325.83 402.25 325.312C402.25 324.795 402.67 324.375 403.188 324.375H407.658L413.654 314.415L408.286 305.625H402.774L400.548 309.241C400.277 309.682 399.7 309.82 399.259 309.548C398.818 309.277 398.68 308.7 398.952 308.259L401.452 304.196Z" fill="#040531"/>
<rect x="403.5" y="312.5" width="5" height="5" transform="rotate(90 403.5 312.5)" fill="url(#paint13_linear_2_2)"/>
<path fill-rule="evenodd" clip-rule="evenodd" d="M400.548 197.804C400.378 198.081 400.076 198.25 399.75 198.25H393.187C392.861 198.25 392.558 198.08 392.387 197.801L386.45 188.077C386.268 187.779 386.267 187.404 386.447 187.105L393.009 176.204C393.179 175.922 393.484 175.75 393.812 175.75H398.812C399.33 175.75 399.75 176.17 399.75 176.688C399.75 177.205 399.33 177.625 398.812 177.625H394.342L388.346 187.585L393.714 196.375H399.226L401.452 192.759C401.723 192.318 402.3 192.18 402.741 192.452C403.182 192.723 403.32 193.3 403.048 193.741L400.548 197.804Z" fill="#040531"/>
<path fill-rule="evenodd" clip-rule="evenodd" d="M401.452 176.196C401.622 175.919 401.924 175.75 402.25 175.75H408.813C409.139 175.75 409.442 175.92 409.613 176.199L415.55 185.923C415.732 186.221 415.733 186.596 415.553 186.895L408.991 197.796C408.821 198.078 408.516 198.25 408.188 198.25H403.188C402.67 198.25 402.25 197.83 402.25 197.312C402.25 196.795 402.67 196.375 403.188 196.375H407.658L413.654 186.415L408.286 177.625H402.774L400.548 181.241C400.277 181.682 399.7 181.82 399.259 181.548C398.818 181.277 398.68 180.7 398.952 180.259L401.452 176.196Z" fill="#040531"/>
<rect x="403.5" y="184.5" width="5" height="5" transform="rotate(90 403.5 184.5)" fill="url(#paint14_linear_2_2)"/>
<path fill-rule="evenodd" clip-rule="evenodd" d="M116 277V305H144V277H116ZM115 274C113.895 274 113 274.895 113 276V306C113 307.105 113.895 308 115 308H145C146.105 308 147 307.105 147 306V276C147 274.895 146.105 274 145 274H115Z" fill="#040531"/>
<path fill-rule="evenodd" clip-rule="evenodd" d="M132 316L132 312L151.193 312L151.193 293.193L155.193 293.193L155.193 316L132 316Z" fill="url(#paint15_linear_2_2)"/>
<path d="M127.997 325.294H126.534V326.106C126.072 325.511 125.379 325.119 124.427 325.119C122.551 325.119 121.074 326.596 121.074 328.647C121.074 330.698 122.551 332.175 124.427 332.175C125.379 332.175 126.072 331.79 126.534 331.195V332H127.997V325.294ZM124.602 326.498C125.813 326.498 126.625 327.422 126.625 328.647C126.625 329.872 125.813 330.796 124.602 330.796C123.342 330.796 122.579 329.823 122.579 328.647C122.579 327.471 123.342 326.498 124.602 326.498ZM133.857 325.119C132.905 325.119 132.219 325.504 131.757 326.092V325.294H130.294V334.8H131.757V331.202C132.219 331.79 132.905 332.175 133.857 332.175C135.733 332.175 137.21 330.698 137.21 328.647C137.21 326.596 135.733 325.119 133.857 325.119ZM133.682 326.498C134.942 326.498 135.705 327.471 135.705 328.647C135.705 329.823 134.942 330.796 133.682 330.796C132.471 330.796 131.659 329.872 131.659 328.647C131.659 327.422 132.471 326.498 133.682 326.498ZM142.579 325.119C141.627 325.119 140.941 325.504 140.479 326.092V325.294H139.016V334.8H140.479V331.202C140.941 331.79 141.627 332.175 142.579 332.175C144.455 332.175 145.932 330.698 145.932 328.647C145.932 326.596 144.455 325.119 142.579 325.119ZM142.404 326.498C143.664 326.498 144.427 327.471 144.427 328.647C144.427 329.823 143.664 330.796 142.404 330.796C141.193 330.796 140.381 329.872 140.381 328.647C140.381 327.422 141.193 326.498 142.404 326.498Z" fill="#040531"/>
<path d="M245 295L230 286.34V303.66L245 295ZM167 296.5H231.5V293.5H167V296.5Z" fill="#040531"/>
<path d="M588.5 153.5V76.5H330" stroke="#040531" stroke-dasharray="2 2"/>
<defs>
<linearGradient id="paint0_linear_2_2" x1="282.25" y1="209.625" x2="282.25" y2="278.375" gradientUnits="userSpaceOnUse">
<stop stop-color="#39CDEE"/>
<stop offset="1" stop-color="#38CCED" stop-opacity="0.4"/>
</linearGradient>
<linearGradient id="paint1_linear_2_2" x1="309" y1="76" x2="309" y2="84" gradientUnits="userSpaceOnUse">
<stop stop-color="#38CCED"/>
<stop offset="1" stop-color="#38CCED" stop-opacity="0.4"/>
</linearGradient>
<linearGradient id="paint2_linear_2_2" x1="603.872" y1="203.303" x2="603.872" y2="185.193" gradientUnits="userSpaceOnUse">
<stop stop-color="#38CCED"/>
<stop offset="1" stop-color="#38CCED" stop-opacity="0.4"/>
</linearGradient>
<linearGradient id="paint3_linear_2_2" x1="603.872" y1="331.303" x2="603.872" y2="313.193" gradientUnits="userSpaceOnUse">
<stop stop-color="#38CCED"/>
<stop offset="1" stop-color="#38CCED" stop-opacity="0.4"/>
</linearGradient>
<linearGradient id="paint4_linear_2_2" x1="8" y1="5.54708e-06" x2="0" y2="5.63401e-06" gradientUnits="userSpaceOnUse">
<stop stop-color="#38CCED"/>
<stop offset="1" stop-color="#38CCED" stop-opacity="0.4"/>
</linearGradient>
<linearGradient id="paint5_linear_2_2" x1="8" y1="5.54708e-06" x2="0" y2="5.63401e-06" gradientUnits="userSpaceOnUse">
<stop stop-color="#38CCED"/>
<stop offset="1" stop-color="#38CCED" stop-opacity="0.4"/>
</linearGradient>
<linearGradient id="paint6_linear_2_2" x1="8" y1="5.54708e-06" x2="0" y2="5.63401e-06" gradientUnits="userSpaceOnUse">
<stop stop-color="#38CCED"/>
<stop offset="1" stop-color="#38CCED" stop-opacity="0.4"/>
</linearGradient>
<linearGradient id="paint7_linear_2_2" x1="8" y1="5.54708e-06" x2="0" y2="5.63401e-06" gradientUnits="userSpaceOnUse">
<stop stop-color="#38CCED"/>
<stop offset="1" stop-color="#38CCED" stop-opacity="0.4"/>
</linearGradient>
<linearGradient id="paint8_linear_2_2" x1="140" y1="190" x2="112" y2="190" gradientUnits="userSpaceOnUse">
<stop stop-color="#38CCED"/>
<stop offset="1" stop-color="#38CCED" stop-opacity="0.4"/>
</linearGradient>
<linearGradient id="paint9_linear_2_2" x1="477" y1="302" x2="449" y2="302" gradientUnits="userSpaceOnUse">
<stop stop-color="#38CCED"/>
<stop offset="1" stop-color="#38CCED" stop-opacity="0.4"/>
</linearGradient>
<linearGradient id="paint10_linear_2_2" x1="477" y1="163" x2="449" y2="163" gradientUnits="userSpaceOnUse">
<stop stop-color="#38CCED"/>
<stop offset="1" stop-color="#38CCED" stop-opacity="0.4"/>
</linearGradient>
<linearGradient id="paint11_linear_2_2" x1="36.8722" y1="223.303" x2="36.8722" y2="205.193" gradientUnits="userSpaceOnUse">
<stop stop-color="#38CCED"/>
<stop offset="1" stop-color="#38CCED" stop-opacity="0.4"/>
</linearGradient>
<linearGradient id="paint12_linear_2_2" x1="209" y1="212.5" x2="209" y2="217.5" gradientUnits="userSpaceOnUse">
<stop stop-color="#38CCED"/>
<stop offset="1" stop-color="#38CCED" stop-opacity="0.4"/>
</linearGradient>
<linearGradient id="paint13_linear_2_2" x1="406" y1="312.5" x2="406" y2="317.5" gradientUnits="userSpaceOnUse">
<stop stop-color="#38CCED"/>
<stop offset="1" stop-color="#38CCED" stop-opacity="0.4"/>
</linearGradient>
<linearGradient id="paint14_linear_2_2" x1="406" y1="184.5" x2="406" y2="189.5" gradientUnits="userSpaceOnUse">
<stop stop-color="#38CCED"/>
<stop offset="1" stop-color="#38CCED" stop-opacity="0.4"/>
</linearGradient>
<linearGradient id="paint15_linear_2_2" x1="146.872" y1="311.303" x2="146.872" y2="293.193" gradientUnits="userSpaceOnUse">
<stop stop-color="#38CCED"/>
<stop offset="1" stop-color="#38CCED" stop-opacity="0.4"/>
</linearGradient>
</defs>
</svg>
